<svg width="30" height="29" viewBox="0 0 30 29" fill="none" xmlns="http://www.w3.org/2000/svg">
<rect y="0.428574" width="30" height="28.5714" rx="5" fill="#3872FF"/>
<path d="M15.98 21.5657C15.9422 21.8429 15.8466 22.0649 15.6932 22.2318C15.4857 22.4576 15.2157 22.5646 14.8831 22.5529C14.5609 22.5496 14.27 22.4433 14.0105 22.2341C13.8444 22.1003 13.7151 21.9362 13.6225 21.742C13.5493 21.5463 13.5285 21.333 13.56 21.1021L14.2226 16.4581C14.3037 15.9766 14.2835 15.5759 14.162 15.2558C14.0509 14.9441 13.8085 14.6376 13.4348 14.3364L11.9087 13.1065L8.87735 16.4051C8.60669 16.6997 8.30192 16.8642 7.96305 16.8986C7.6332 16.9233 7.31774 16.8143 7.01668 16.5717C6.71563 16.329 6.54835 16.0489 6.51486 15.7314C6.50078 15.4125 6.62906 15.1057 6.89972 14.8112L14.8164 6.19637C15.0781 5.91167 15.3641 5.75771 15.6746 5.7345C15.9954 5.71966 16.3064 5.83357 16.6074 6.07621L20.5004 9.21385C21.7461 10.2179 22.4472 11.2444 22.6037 12.2933C22.7795 13.3407 22.4119 14.3602 21.5007 15.3518C20.7609 16.1568 19.9079 16.6229 18.9418 16.7499C17.9952 16.8756 17.013 16.6564 15.9952 16.0925C16.2331 16.4039 16.3851 16.7399 16.4511 17.1007C16.5171 17.4615 16.5147 17.8868 16.444 18.3767L15.98 21.5657ZM15.849 13.7445C16.6068 14.3553 17.284 14.6704 17.8805 14.6898C18.4861 14.6994 19.046 14.4244 19.5603 13.8648C20.0836 13.2954 20.286 12.7408 20.1676 12.2011C20.0582 11.6515 19.6246 11.0714 18.8668 10.4606L16.2507 8.35207L13.2329 11.636L15.849 13.7445Z" fill="white"/>
</svg>
