<svg width="1640" height="286" viewBox="0 0 1640 286" fill="none" xmlns="http://www.w3.org/2000/svg">
<path fill-rule="evenodd" clip-rule="evenodd" d="M1639.98 83.1902L1571.8 103.572C1502.62 123.953 1366.25 164.716 1228.97 137.542C1092.68 110.369 955.485 14.4398 819.163 14.2777C681.852 14.1145 545.416 109.718 408.09 122.651C271.751 136.404 134.521 68.3042 66.4007 33.8456L-1.72065 0.20562L-2.06027 285.866L66.101 285.947C134.262 286.028 271.573 286.192 407.895 286.354C545.206 286.517 681.528 286.679 818.839 286.842C955.161 287.004 1092.47 287.167 1228.79 287.33C1366.1 287.493 1502.43 287.655 1571.58 287.737L1639.74 287.818L1639.98 83.1902Z" fill="white"/>
<path d="M166.14 193.684C165.56 193.684 165.1 193.524 164.76 193.204C164.44 192.884 164.28 192.434 164.28 191.854V174.364C164.28 173.784 164.44 173.334 164.76 173.014C165.1 172.694 165.56 172.534 166.14 172.534H172.08C175.54 172.534 178.22 173.464 180.12 175.324C182.04 177.164 183 179.754 183 183.094C183 186.454 182.04 189.064 180.12 190.924C178.22 192.764 175.54 193.684 172.08 193.684H166.14ZM171.84 190.534C176.7 190.534 179.13 188.054 179.13 183.094C179.13 178.154 176.7 175.684 171.84 175.684H168.15V190.534H171.84ZM198.177 189.664C198.517 189.664 198.787 189.794 198.987 190.054C199.207 190.314 199.317 190.664 199.317 191.104C199.317 191.724 198.947 192.244 198.207 192.664C197.527 193.044 196.757 193.354 195.897 193.594C195.037 193.814 194.217 193.924 193.437 193.924C191.077 193.924 189.207 193.244 187.827 191.884C186.447 190.524 185.757 188.664 185.757 186.304C185.757 184.804 186.057 183.474 186.657 182.314C187.257 181.154 188.097 180.254 189.177 179.614C190.277 178.974 191.517 178.654 192.897 178.654C194.217 178.654 195.367 178.944 196.347 179.524C197.327 180.104 198.087 180.924 198.627 181.984C199.167 183.044 199.437 184.294 199.437 185.734C199.437 186.594 199.057 187.024 198.297 187.024H189.447C189.567 188.404 189.957 189.424 190.617 190.084C191.277 190.724 192.237 191.044 193.497 191.044C194.137 191.044 194.697 190.964 195.177 190.804C195.677 190.644 196.237 190.424 196.857 190.144C197.457 189.824 197.897 189.664 198.177 189.664ZM192.987 181.294C191.967 181.294 191.147 181.614 190.527 182.254C189.927 182.894 189.567 183.814 189.447 185.014H196.227C196.187 183.794 195.887 182.874 195.327 182.254C194.767 181.614 193.987 181.294 192.987 181.294ZM212.5 179.794C212.66 179.434 212.87 179.164 213.13 178.984C213.41 178.804 213.71 178.714 214.03 178.714C214.49 178.714 214.9 178.874 215.26 179.194C215.64 179.494 215.83 179.874 215.83 180.334C215.83 180.574 215.77 180.814 215.65 181.054L210.1 192.664C209.92 193.044 209.66 193.334 209.32 193.534C209 193.734 208.64 193.834 208.24 193.834C207.86 193.834 207.49 193.734 207.13 193.534C206.79 193.334 206.53 193.044 206.35 192.664L200.77 181.054C200.67 180.854 200.62 180.624 200.62 180.364C200.62 179.904 200.81 179.514 201.19 179.194C201.59 178.874 202.04 178.714 202.54 178.714C203.26 178.714 203.79 179.064 204.13 179.764L208.33 189.034L212.5 179.794ZM229.437 189.664C229.777 189.664 230.047 189.794 230.247 190.054C230.467 190.314 230.577 190.664 230.577 191.104C230.577 191.724 230.207 192.244 229.467 192.664C228.787 193.044 228.017 193.354 227.157 193.594C226.297 193.814 225.477 193.924 224.697 193.924C222.337 193.924 220.467 193.244 219.087 191.884C217.707 190.524 217.017 188.664 217.017 186.304C217.017 184.804 217.317 183.474 217.917 182.314C218.517 181.154 219.357 180.254 220.437 179.614C221.537 178.974 222.777 178.654 224.157 178.654C225.477 178.654 226.627 178.944 227.607 179.524C228.587 180.104 229.347 180.924 229.887 181.984C230.427 183.044 230.697 184.294 230.697 185.734C230.697 186.594 230.317 187.024 229.557 187.024H220.707C220.827 188.404 221.217 189.424 221.877 190.084C222.537 190.724 223.497 191.044 224.757 191.044C225.397 191.044 225.957 190.964 226.437 190.804C226.937 190.644 227.497 190.424 228.117 190.144C228.717 189.824 229.157 189.664 229.437 189.664ZM224.247 181.294C223.227 181.294 222.407 181.614 221.787 182.254C221.187 182.894 220.827 183.814 220.707 185.014H227.487C227.447 183.794 227.147 182.874 226.587 182.254C226.027 181.614 225.247 181.294 224.247 181.294ZM235.625 193.864C235.085 193.864 234.635 193.714 234.275 193.414C233.935 193.094 233.765 192.644 233.765 192.064V174.154C233.765 173.574 233.935 173.134 234.275 172.834C234.635 172.534 235.085 172.384 235.625 172.384C236.165 172.384 236.615 172.534 236.975 172.834C237.335 173.134 237.515 173.574 237.515 174.154V192.064C237.515 192.644 237.335 193.094 236.975 193.414C236.615 193.714 236.165 193.864 235.625 193.864ZM248.072 193.924C246.572 193.924 245.252 193.614 244.112 192.994C242.992 192.374 242.122 191.484 241.502 190.324C240.882 189.164 240.572 187.814 240.572 186.274C240.572 184.734 240.882 183.394 241.502 182.254C242.122 181.094 242.992 180.204 244.112 179.584C245.252 178.964 246.572 178.654 248.072 178.654C249.572 178.654 250.882 178.964 252.002 179.584C253.142 180.204 254.012 181.094 254.612 182.254C255.232 183.394 255.542 184.734 255.542 186.274C255.542 187.814 255.232 189.164 254.612 190.324C254.012 191.484 253.142 192.374 252.002 192.994C250.882 193.614 249.572 193.924 248.072 193.924ZM248.042 191.014C249.262 191.014 250.192 190.614 250.832 189.814C251.472 189.014 251.792 187.834 251.792 186.274C251.792 184.734 251.472 183.564 250.832 182.764C250.192 181.944 249.272 181.534 248.072 181.534C246.872 181.534 245.942 181.944 245.282 182.764C244.642 183.564 244.322 184.734 244.322 186.274C244.322 187.834 244.642 189.014 245.282 189.814C245.922 190.614 246.842 191.014 248.042 191.014ZM267.068 178.654C268.328 178.654 269.448 178.974 270.428 179.614C271.428 180.254 272.198 181.164 272.738 182.344C273.298 183.504 273.578 184.844 273.578 186.364C273.578 187.884 273.298 189.214 272.738 190.354C272.198 191.494 271.438 192.374 270.458 192.994C269.478 193.614 268.348 193.924 267.068 193.924C266.028 193.924 265.098 193.704 264.278 193.264C263.458 192.824 262.828 192.214 262.388 191.434V197.554C262.388 198.074 262.218 198.484 261.878 198.784C261.538 199.084 261.088 199.234 260.528 199.234C259.968 199.234 259.508 199.074 259.148 198.754C258.808 198.434 258.638 198.014 258.638 197.494V180.484C258.638 179.944 258.798 179.514 259.118 179.194C259.458 178.874 259.908 178.714 260.468 178.714C261.028 178.714 261.478 178.874 261.818 179.194C262.158 179.514 262.328 179.944 262.328 180.484V181.234C262.768 180.414 263.398 179.784 264.218 179.344C265.058 178.884 266.008 178.654 267.068 178.654ZM266.078 191.014C267.258 191.014 268.178 190.614 268.838 189.814C269.498 188.994 269.828 187.844 269.828 186.364C269.828 184.844 269.498 183.664 268.838 182.824C268.178 181.984 267.258 181.564 266.078 181.564C264.878 181.564 263.948 181.974 263.288 182.794C262.648 183.614 262.328 184.784 262.328 186.304C262.328 187.804 262.648 188.964 263.288 189.784C263.948 190.604 264.878 191.014 266.078 191.014ZM288.265 189.664C288.605 189.664 288.875 189.794 289.075 190.054C289.295 190.314 289.405 190.664 289.405 191.104C289.405 191.724 289.035 192.244 288.295 192.664C287.615 193.044 286.845 193.354 285.985 193.594C285.125 193.814 284.305 193.924 283.525 193.924C281.165 193.924 279.295 193.244 277.915 191.884C276.535 190.524 275.845 188.664 275.845 186.304C275.845 184.804 276.145 183.474 276.745 182.314C277.345 181.154 278.185 180.254 279.265 179.614C280.365 178.974 281.605 178.654 282.985 178.654C284.305 178.654 285.455 178.944 286.435 179.524C287.415 180.104 288.175 180.924 288.715 181.984C289.255 183.044 289.525 184.294 289.525 185.734C289.525 186.594 289.145 187.024 288.385 187.024H279.535C279.655 188.404 280.045 189.424 280.705 190.084C281.365 190.724 282.325 191.044 283.585 191.044C284.225 191.044 284.785 190.964 285.265 190.804C285.765 190.644 286.325 190.424 286.945 190.144C287.545 189.824 287.985 189.664 288.265 189.664ZM283.075 181.294C282.055 181.294 281.235 181.614 280.615 182.254C280.015 182.894 279.655 183.814 279.535 185.014H286.315C286.275 183.794 285.975 182.874 285.415 182.254C284.855 181.614 284.075 181.294 283.075 181.294ZM304.833 172.384C305.393 172.384 305.853 172.544 306.213 172.864C306.573 173.184 306.753 173.604 306.753 174.124V192.064C306.753 192.604 306.583 193.034 306.243 193.354C305.903 193.674 305.453 193.834 304.893 193.834C304.333 193.834 303.883 193.674 303.543 193.354C303.203 193.034 303.033 192.604 303.033 192.064V191.314C302.593 192.134 301.953 192.774 301.113 193.234C300.293 193.694 299.353 193.924 298.293 193.924C297.033 193.924 295.903 193.604 294.903 192.964C293.923 192.324 293.153 191.424 292.593 190.264C292.053 189.084 291.783 187.734 291.783 186.214C291.783 184.694 292.053 183.364 292.593 182.224C293.153 181.084 293.923 180.204 294.903 179.584C295.883 178.964 297.013 178.654 298.293 178.654C299.353 178.654 300.293 178.874 301.113 179.314C301.933 179.754 302.563 180.374 303.003 181.174V174.064C303.003 173.564 303.163 173.164 303.483 172.864C303.823 172.544 304.273 172.384 304.833 172.384ZM299.283 191.014C300.483 191.014 301.403 190.604 302.043 189.784C302.703 188.964 303.033 187.794 303.033 186.274C303.033 184.754 302.703 183.594 302.043 182.794C301.403 181.974 300.493 181.564 299.313 181.564C298.113 181.564 297.183 181.964 296.523 182.764C295.863 183.564 295.533 184.714 295.533 186.214C295.533 187.734 295.863 188.914 296.523 189.754C297.183 190.594 298.103 191.014 299.283 191.014ZM338.585 179.824C338.725 179.464 338.925 179.194 339.185 179.014C339.465 178.834 339.765 178.744 340.085 178.744C340.545 178.744 340.955 178.904 341.315 179.224C341.695 179.524 341.885 179.904 341.885 180.364C341.885 180.624 341.835 180.854 341.735 181.054L336.785 192.664C336.625 193.044 336.375 193.334 336.035 193.534C335.715 193.734 335.355 193.834 334.955 193.834C334.575 193.834 334.215 193.734 333.875 193.534C333.555 193.334 333.315 193.044 333.155 192.664L329.585 184.084L326.135 192.664C325.975 193.044 325.725 193.334 325.385 193.534C325.065 193.734 324.705 193.834 324.305 193.834C323.925 193.834 323.565 193.734 323.225 193.534C322.885 193.334 322.635 193.044 322.475 192.664L317.555 181.054C317.455 180.794 317.405 180.574 317.405 180.394C317.405 179.934 317.605 179.544 318.005 179.224C318.405 178.884 318.845 178.714 319.325 178.714C319.665 178.714 319.975 178.804 320.255 178.984C320.535 179.164 320.745 179.434 320.885 179.794L324.425 188.944L328.055 179.884C328.215 179.504 328.445 179.224 328.745 179.044C329.045 178.844 329.375 178.744 329.735 178.744C330.095 178.744 330.425 178.844 330.725 179.044C331.025 179.224 331.255 179.504 331.415 179.884L335.075 188.974L338.585 179.824ZM346.806 193.864C346.266 193.864 345.816 193.714 345.456 193.414C345.116 193.094 344.946 192.644 344.946 192.064V180.484C344.946 179.904 345.116 179.464 345.456 179.164C345.816 178.864 346.266 178.714 346.806 178.714C347.346 178.714 347.796 178.864 348.156 179.164C348.516 179.464 348.696 179.904 348.696 180.484V192.064C348.696 192.644 348.516 193.094 348.156 193.414C347.796 193.714 347.346 193.864 346.806 193.864ZM346.806 176.044C346.126 176.044 345.586 175.864 345.186 175.504C344.786 175.124 344.586 174.634 344.586 174.034C344.586 173.434 344.786 172.954 345.186 172.594C345.586 172.234 346.126 172.054 346.806 172.054C347.466 172.054 347.996 172.234 348.396 172.594C348.816 172.954 349.026 173.434 349.026 174.034C349.026 174.634 348.826 175.124 348.426 175.504C348.026 175.864 347.486 176.044 346.806 176.044ZM360.828 191.074C361.828 191.134 362.328 191.584 362.328 192.424C362.328 192.904 362.128 193.274 361.728 193.534C361.348 193.774 360.798 193.874 360.078 193.834L359.268 193.774C355.908 193.534 354.228 191.734 354.228 188.374V181.834H352.728C352.188 181.834 351.768 181.714 351.468 181.474C351.188 181.234 351.048 180.884 351.048 180.424C351.048 179.964 351.188 179.614 351.468 179.374C351.768 179.134 352.188 179.014 352.728 179.014H354.228V176.254C354.228 175.714 354.398 175.284 354.738 174.964C355.078 174.644 355.538 174.484 356.118 174.484C356.678 174.484 357.128 174.644 357.468 174.964C357.808 175.284 357.978 175.714 357.978 176.254V179.014H360.528C361.068 179.014 361.478 179.134 361.758 179.374C362.058 179.614 362.208 179.964 362.208 180.424C362.208 180.884 362.058 181.234 361.758 181.474C361.478 181.714 361.068 181.834 360.528 181.834H357.978V188.644C357.978 190.124 358.658 190.914 360.018 191.014L360.828 191.074ZM372.862 178.654C376.302 178.654 378.022 180.664 378.022 184.684V192.064C378.022 192.624 377.852 193.064 377.512 193.384C377.192 193.704 376.742 193.864 376.162 193.864C375.582 193.864 375.122 193.704 374.782 193.384C374.442 193.064 374.272 192.624 374.272 192.064V184.684C374.272 183.624 374.052 182.854 373.612 182.374C373.192 181.874 372.522 181.624 371.602 181.624C370.522 181.624 369.652 181.964 368.992 182.644C368.352 183.324 368.032 184.234 368.032 185.374V192.064C368.032 192.624 367.862 193.064 367.522 193.384C367.182 193.704 366.722 193.864 366.142 193.864C365.562 193.864 365.102 193.704 364.762 193.384C364.442 193.064 364.282 192.624 364.282 192.064V174.124C364.282 173.604 364.452 173.184 364.792 172.864C365.152 172.544 365.612 172.384 366.172 172.384C366.732 172.384 367.182 172.534 367.522 172.834C367.862 173.134 368.032 173.544 368.032 174.064V181.054C368.532 180.274 369.192 179.684 370.012 179.284C370.852 178.864 371.802 178.654 372.862 178.654ZM405.696 173.374C406.016 172.694 406.546 172.354 407.286 172.354C407.786 172.354 408.236 172.514 408.636 172.834C409.036 173.154 409.236 173.554 409.236 174.034C409.236 174.254 409.176 174.504 409.056 174.784L400.746 192.664C400.566 193.044 400.286 193.344 399.906 193.564C399.546 193.764 399.156 193.864 398.736 193.864C398.316 193.864 397.916 193.764 397.536 193.564C397.176 193.344 396.906 193.044 396.726 192.664L388.446 174.784C388.326 174.504 388.266 174.264 388.266 174.064C388.266 173.564 388.466 173.154 388.866 172.834C389.286 172.514 389.756 172.354 390.276 172.354C390.616 172.354 390.926 172.444 391.206 172.624C391.506 172.784 391.736 173.034 391.896 173.374L398.796 188.704L405.696 173.374ZM421.477 178.714C422.057 178.714 422.517 178.874 422.857 179.194C423.197 179.514 423.367 179.944 423.367 180.484V192.124C423.367 192.644 423.187 193.064 422.827 193.384C422.487 193.704 422.037 193.864 421.477 193.864C420.937 193.864 420.507 193.714 420.187 193.414C419.867 193.114 419.707 192.704 419.707 192.184V191.434C419.247 192.234 418.627 192.854 417.847 193.294C417.067 193.714 416.187 193.924 415.207 193.924C411.607 193.924 409.807 191.904 409.807 187.864V180.484C409.807 179.944 409.977 179.514 410.317 179.194C410.657 178.874 411.107 178.714 411.667 178.714C412.247 178.714 412.707 178.874 413.047 179.194C413.387 179.514 413.557 179.944 413.557 180.484V187.894C413.557 188.934 413.767 189.704 414.187 190.204C414.607 190.704 415.267 190.954 416.167 190.954C417.207 190.954 418.037 190.614 418.657 189.934C419.297 189.234 419.617 188.314 419.617 187.174V180.484C419.617 179.944 419.787 179.514 420.127 179.194C420.467 178.874 420.917 178.714 421.477 178.714ZM438.88 189.664C439.22 189.664 439.49 189.794 439.69 190.054C439.91 190.314 440.02 190.664 440.02 191.104C440.02 191.724 439.65 192.244 438.91 192.664C438.23 193.044 437.46 193.354 436.6 193.594C435.74 193.814 434.92 193.924 434.14 193.924C431.78 193.924 429.91 193.244 428.53 191.884C427.15 190.524 426.46 188.664 426.46 186.304C426.46 184.804 426.76 183.474 427.36 182.314C427.96 181.154 428.8 180.254 429.88 179.614C430.98 178.974 432.22 178.654 433.6 178.654C434.92 178.654 436.07 178.944 437.05 179.524C438.03 180.104 438.79 180.924 439.33 181.984C439.87 183.044 440.14 184.294 440.14 185.734C440.14 186.594 439.76 187.024 439 187.024H430.15C430.27 188.404 430.66 189.424 431.32 190.084C431.98 190.724 432.94 191.044 434.2 191.044C434.84 191.044 435.4 190.964 435.88 190.804C436.38 190.644 436.94 190.424 437.56 190.144C438.16 189.824 438.6 189.664 438.88 189.664ZM433.69 181.294C432.67 181.294 431.85 181.614 431.23 182.254C430.63 182.894 430.27 183.814 430.15 185.014H436.93C436.89 183.794 436.59 182.874 436.03 182.254C435.47 181.614 434.69 181.294 433.69 181.294Z" fill="#2F2E32"/>
<path d="M176.19 251.244C173.61 251.244 171.36 250.714 169.44 249.654C167.52 248.594 166.04 247.104 165 245.184C163.98 243.244 163.47 241.014 163.47 238.494C163.47 235.854 164.02 233.544 165.12 231.564C166.24 229.584 167.76 228.054 169.68 226.974C171.62 225.894 173.79 225.354 176.19 225.354C178.75 225.354 180.94 225.884 182.76 226.944C184.6 227.984 185.98 229.344 186.9 231.024C187.84 232.704 188.31 234.484 188.31 236.364C188.31 238.324 188.01 239.934 187.41 241.194C186.83 242.434 186.08 243.344 185.16 243.924C184.26 244.484 183.3 244.764 182.28 244.764C181.22 244.764 180.38 244.534 179.76 244.074C179.16 243.594 178.82 242.934 178.74 242.094H178.68C178.18 242.914 177.55 243.564 176.79 244.044C176.05 244.524 175.18 244.764 174.18 244.764C172.86 244.764 171.79 244.304 170.97 243.384C170.15 242.444 169.74 241.154 169.74 239.514C169.74 238.154 170 236.874 170.52 235.674C171.06 234.474 171.81 233.514 172.77 232.794C173.73 232.074 174.83 231.714 176.07 231.714C177.01 231.714 177.83 231.944 178.53 232.404C179.23 232.844 179.69 233.424 179.91 234.144H179.94L180.18 232.824C180.22 232.584 180.33 232.394 180.51 232.254C180.69 232.114 180.91 232.044 181.17 232.044C181.51 232.044 181.76 232.154 181.92 232.374C182.08 232.574 182.13 232.844 182.07 233.184L180.84 240.204C180.76 240.764 180.72 241.124 180.72 241.284C180.72 241.964 180.88 242.444 181.2 242.724C181.52 243.004 182 243.144 182.64 243.144C183.2 243.144 183.77 242.924 184.35 242.484C184.93 242.024 185.42 241.294 185.82 240.294C186.22 239.274 186.42 237.964 186.42 236.364C186.42 234.784 186.04 233.294 185.28 231.894C184.52 230.494 183.37 229.364 181.83 228.504C180.29 227.624 178.41 227.184 176.19 227.184C174.15 227.184 172.31 227.644 170.67 228.564C169.05 229.464 167.77 230.774 166.83 232.494C165.89 234.194 165.42 236.194 165.42 238.494C165.42 240.694 165.85 242.624 166.71 244.284C167.57 245.924 168.81 247.184 170.43 248.064C172.05 248.964 173.97 249.414 176.19 249.414C179.23 249.414 181.6 248.594 183.3 246.954C183.58 246.694 183.87 246.564 184.17 246.564C184.41 246.564 184.61 246.654 184.77 246.834C184.93 247.014 185.01 247.234 185.01 247.494C185.01 247.814 184.89 248.084 184.65 248.304C183.75 249.204 182.56 249.914 181.08 250.434C179.62 250.974 177.99 251.244 176.19 251.244ZM174.57 243.144C175.57 243.144 176.43 242.844 177.15 242.244C177.89 241.624 178.45 240.834 178.83 239.874C179.21 238.914 179.4 237.904 179.4 236.844C179.4 235.724 179.12 234.874 178.56 234.294C178.02 233.694 177.28 233.394 176.34 233.394C175.38 233.394 174.54 233.684 173.82 234.264C173.12 234.844 172.58 235.604 172.2 236.544C171.84 237.464 171.66 238.424 171.66 239.424C171.66 240.604 171.94 241.524 172.5 242.184C173.06 242.824 173.75 243.144 174.57 243.144ZM209.088 246.924C207.088 246.924 205.358 246.494 203.898 245.634C202.438 244.754 201.308 243.504 200.508 241.884C199.728 240.244 199.338 238.314 199.338 236.094C199.338 233.894 199.728 231.984 200.508 230.364C201.308 228.724 202.438 227.474 203.898 226.614C205.358 225.734 207.088 225.294 209.088 225.294C210.428 225.294 211.688 225.514 212.868 225.954C214.068 226.374 215.108 226.984 215.988 227.784C216.308 228.084 216.468 228.434 216.468 228.834C216.468 229.114 216.388 229.364 216.228 229.584C216.068 229.784 215.878 229.884 215.658 229.884C215.418 229.884 215.128 229.774 214.788 229.554C213.768 228.754 212.838 228.194 211.998 227.874C211.178 227.554 210.228 227.394 209.148 227.394C206.828 227.394 205.038 228.154 203.778 229.674C202.538 231.174 201.918 233.314 201.918 236.094C201.918 238.894 202.538 241.054 203.778 242.574C205.038 244.074 206.828 244.824 209.148 244.824C210.208 244.824 211.158 244.664 211.998 244.344C212.838 244.024 213.768 243.464 214.788 242.664C215.128 242.444 215.418 242.334 215.658 242.334C215.878 242.334 216.068 242.434 216.228 242.634C216.388 242.834 216.468 243.084 216.468 243.384C216.468 243.784 216.308 244.134 215.988 244.434C215.108 245.234 214.068 245.854 212.868 246.294C211.688 246.714 210.428 246.924 209.088 246.924ZM225.738 231.714C229.398 231.714 231.228 233.634 231.228 237.474V245.634C231.228 245.994 231.118 246.284 230.898 246.504C230.698 246.724 230.418 246.834 230.058 246.834C229.698 246.834 229.408 246.724 229.188 246.504C228.968 246.284 228.858 245.994 228.858 245.634V244.194C228.478 245.054 227.898 245.724 227.118 246.204C226.338 246.664 225.438 246.894 224.418 246.894C223.478 246.894 222.608 246.704 221.808 246.324C221.028 245.944 220.408 245.414 219.948 244.734C219.488 244.054 219.258 243.304 219.258 242.484C219.258 241.384 219.538 240.534 220.098 239.934C220.658 239.314 221.578 238.874 222.858 238.614C224.138 238.334 225.918 238.194 228.198 238.194H228.858V237.204C228.858 236.004 228.608 235.124 228.108 234.564C227.628 234.004 226.838 233.724 225.738 233.724C224.378 233.724 222.998 234.094 221.598 234.834C221.058 235.174 220.678 235.344 220.458 235.344C220.218 235.344 220.018 235.254 219.858 235.074C219.698 234.894 219.618 234.664 219.618 234.384C219.618 234.104 219.698 233.864 219.858 233.664C220.038 233.444 220.318 233.224 220.698 233.004C221.398 232.604 222.188 232.294 223.068 232.074C223.968 231.834 224.858 231.714 225.738 231.714ZM224.748 244.974C225.948 244.974 226.928 244.574 227.688 243.774C228.468 242.954 228.858 241.904 228.858 240.624V239.754H228.318C226.558 239.754 225.218 239.834 224.298 239.994C223.378 240.134 222.718 240.384 222.318 240.744C221.938 241.084 221.748 241.594 221.748 242.274C221.748 243.054 222.028 243.704 222.588 244.224C223.168 244.724 223.888 244.974 224.748 244.974ZM242.906 231.774C243.746 231.714 244.166 232.054 244.166 232.794C244.166 233.114 244.076 233.374 243.896 233.574C243.716 233.754 243.406 233.864 242.966 233.904L242.066 233.994C240.726 234.114 239.726 234.594 239.066 235.434C238.426 236.254 238.106 237.224 238.106 238.344V245.634C238.106 246.034 237.996 246.334 237.776 246.534C237.556 246.734 237.266 246.834 236.906 246.834C236.546 246.834 236.246 246.734 236.006 246.534C235.786 246.314 235.676 246.014 235.676 245.634V232.974C235.676 232.594 235.796 232.304 236.036 232.104C236.276 231.884 236.566 231.774 236.906 231.774C237.226 231.774 237.496 231.884 237.716 232.104C237.936 232.304 238.046 232.584 238.046 232.944V234.624C238.466 233.744 239.056 233.074 239.816 232.614C240.596 232.154 241.486 231.884 242.486 231.804L242.906 231.774ZM262.512 231.714C265.752 231.714 267.372 233.644 267.372 237.504V245.634C267.372 246.014 267.262 246.314 267.042 246.534C266.822 246.734 266.532 246.834 266.172 246.834C265.812 246.834 265.512 246.734 265.272 246.534C265.052 246.314 264.942 246.014 264.942 245.634V237.564C264.942 236.224 264.702 235.254 264.222 234.654C263.742 234.054 262.992 233.754 261.972 233.754C260.752 233.754 259.792 234.164 259.092 234.984C258.392 235.804 258.042 236.914 258.042 238.314V245.634C258.042 246.014 257.922 246.314 257.682 246.534C257.462 246.734 257.172 246.834 256.812 246.834C256.452 246.834 256.162 246.734 255.942 246.534C255.722 246.314 255.612 246.014 255.612 245.634V237.564C255.612 236.224 255.372 235.254 254.892 234.654C254.412 234.054 253.652 233.754 252.612 233.754C251.412 233.754 250.452 234.164 249.732 234.984C249.032 235.804 248.682 236.914 248.682 238.314V245.634C248.682 246.014 248.572 246.314 248.352 246.534C248.132 246.734 247.842 246.834 247.482 246.834C247.122 246.834 246.822 246.734 246.582 246.534C246.362 246.314 246.252 246.014 246.252 245.634V232.974C246.252 232.614 246.362 232.324 246.582 232.104C246.822 231.884 247.122 231.774 247.482 231.774C247.822 231.774 248.102 231.884 248.322 232.104C248.542 232.304 248.652 232.584 248.652 232.944V234.384C249.092 233.524 249.702 232.864 250.482 232.404C251.262 231.944 252.162 231.714 253.182 231.714C255.462 231.714 256.952 232.674 257.652 234.594C258.072 233.714 258.712 233.014 259.572 232.494C260.432 231.974 261.412 231.714 262.512 231.714ZM273.029 246.834C272.669 246.834 272.369 246.734 272.129 246.534C271.909 246.314 271.799 246.014 271.799 245.634V232.974C271.799 232.594 271.909 232.304 272.129 232.104C272.369 231.884 272.669 231.774 273.029 231.774C273.389 231.774 273.679 231.884 273.899 232.104C274.119 232.304 274.229 232.594 274.229 232.974V245.634C274.229 246.034 274.119 246.334 273.899 246.534C273.679 246.734 273.389 246.834 273.029 246.834ZM273.029 228.624C272.549 228.624 272.159 228.484 271.859 228.204C271.559 227.924 271.409 227.554 271.409 227.094C271.409 226.654 271.559 226.294 271.859 226.014C272.159 225.734 272.549 225.594 273.029 225.594C273.509 225.594 273.899 225.734 274.199 226.014C274.499 226.294 274.649 226.654 274.649 227.094C274.649 227.554 274.499 227.924 274.199 228.204C273.899 228.484 273.509 228.624 273.029 228.624ZM286.122 231.714C289.622 231.714 291.372 233.644 291.372 237.504V245.634C291.372 246.014 291.262 246.314 291.042 246.534C290.842 246.734 290.552 246.834 290.172 246.834C289.792 246.834 289.492 246.734 289.272 246.534C289.052 246.314 288.942 246.014 288.942 245.634V237.654C288.942 236.294 288.672 235.304 288.132 234.684C287.612 234.064 286.772 233.754 285.612 233.754C284.272 233.754 283.202 234.164 282.402 234.984C281.602 235.804 281.202 236.914 281.202 238.314V245.634C281.202 246.014 281.092 246.314 280.872 246.534C280.672 246.734 280.382 246.834 280.002 246.834C279.622 246.834 279.322 246.734 279.102 246.534C278.882 246.314 278.772 246.014 278.772 245.634V232.974C278.772 232.614 278.882 232.324 279.102 232.104C279.322 231.884 279.622 231.774 280.002 231.774C280.362 231.774 280.642 231.884 280.842 232.104C281.062 232.324 281.172 232.604 281.172 232.944V234.474C281.652 233.574 282.322 232.894 283.182 232.434C284.042 231.954 285.022 231.714 286.122 231.714ZM307.132 243.294C307.352 243.294 307.542 243.384 307.702 243.564C307.862 243.744 307.942 243.974 307.942 244.254C307.942 244.754 307.592 245.214 306.892 245.634C306.172 246.054 305.412 246.374 304.612 246.594C303.812 246.794 303.032 246.894 302.272 246.894C300.012 246.894 298.222 246.224 296.902 244.884C295.602 243.544 294.952 241.694 294.952 239.334C294.952 237.834 295.242 236.514 295.822 235.374C296.402 234.214 297.212 233.314 298.252 232.674C299.312 232.034 300.512 231.714 301.852 231.714C303.752 231.714 305.262 232.334 306.382 233.574C307.502 234.814 308.062 236.494 308.062 238.614C308.062 239.014 307.982 239.304 307.822 239.484C307.662 239.664 307.402 239.754 307.042 239.754H297.382C297.562 243.194 299.192 244.914 302.272 244.914C303.052 244.914 303.722 244.814 304.282 244.614C304.842 244.394 305.442 244.104 306.082 243.744C306.602 243.444 306.952 243.294 307.132 243.294ZM301.882 233.604C300.602 233.604 299.572 234.004 298.792 234.804C298.032 235.604 297.582 236.734 297.442 238.194H305.932C305.892 236.714 305.522 235.584 304.822 234.804C304.122 234.004 303.142 233.604 301.882 233.604ZM320.967 246.834C320.587 246.834 320.287 246.724 320.067 246.504C319.847 246.264 319.737 245.954 319.737 245.574V226.734C319.737 226.374 319.847 226.084 320.067 225.864C320.307 225.644 320.617 225.534 320.997 225.534H331.917C332.277 225.534 332.557 225.624 332.757 225.804C332.957 225.984 333.057 226.244 333.057 226.584C333.057 226.904 332.957 227.154 332.757 227.334C332.557 227.514 332.277 227.604 331.917 227.604H322.167V234.894H331.317C331.677 234.894 331.957 234.984 332.157 235.164C332.357 235.344 332.457 235.604 332.457 235.944C332.457 236.264 332.357 236.514 332.157 236.694C331.957 236.874 331.677 236.964 331.317 236.964H322.167V245.574C322.167 245.954 322.057 246.264 321.837 246.504C321.637 246.724 321.347 246.834 320.967 246.834ZM341.607 231.714C345.267 231.714 347.097 233.634 347.097 237.474V245.634C347.097 245.994 346.987 246.284 346.767 246.504C346.567 246.724 346.287 246.834 345.927 246.834C345.567 246.834 345.277 246.724 345.057 246.504C344.837 246.284 344.727 245.994 344.727 245.634V244.194C344.347 245.054 343.767 245.724 342.987 246.204C342.207 246.664 341.307 246.894 340.287 246.894C339.347 246.894 338.477 246.704 337.677 246.324C336.897 245.944 336.277 245.414 335.817 244.734C335.357 244.054 335.127 243.304 335.127 242.484C335.127 241.384 335.407 240.534 335.967 239.934C336.527 239.314 337.447 238.874 338.727 238.614C340.007 238.334 341.787 238.194 344.067 238.194H344.727V237.204C344.727 236.004 344.477 235.124 343.977 234.564C343.497 234.004 342.707 233.724 341.607 233.724C340.247 233.724 338.867 234.094 337.467 234.834C336.927 235.174 336.547 235.344 336.327 235.344C336.087 235.344 335.887 235.254 335.727 235.074C335.567 234.894 335.487 234.664 335.487 234.384C335.487 234.104 335.567 233.864 335.727 233.664C335.907 233.444 336.187 233.224 336.567 233.004C337.267 232.604 338.057 232.294 338.937 232.074C339.837 231.834 340.727 231.714 341.607 231.714ZM340.617 244.974C341.817 244.974 342.797 244.574 343.557 243.774C344.337 242.954 344.727 241.904 344.727 240.624V239.754H344.187C342.427 239.754 341.087 239.834 340.167 239.994C339.247 240.134 338.587 240.384 338.187 240.744C337.807 241.084 337.617 241.594 337.617 242.274C337.617 243.054 337.897 243.704 338.457 244.224C339.037 244.724 339.757 244.974 340.617 244.974ZM358.895 231.714C360.175 231.714 361.305 232.024 362.285 232.644C363.265 233.264 364.025 234.144 364.565 235.284C365.105 236.424 365.375 237.744 365.375 239.244C365.375 240.764 365.105 242.104 364.565 243.264C364.025 244.404 363.265 245.294 362.285 245.934C361.305 246.574 360.175 246.894 358.895 246.894C357.755 246.894 356.755 246.644 355.895 246.144C355.055 245.644 354.415 244.934 353.975 244.014V245.634C353.975 245.994 353.865 246.284 353.645 246.504C353.445 246.724 353.155 246.834 352.775 246.834C352.395 246.834 352.095 246.724 351.875 246.504C351.655 246.284 351.545 245.994 351.545 245.634V226.554C351.545 226.214 351.655 225.934 351.875 225.714C352.095 225.494 352.395 225.384 352.775 225.384C353.155 225.384 353.445 225.494 353.645 225.714C353.865 225.914 353.975 226.194 353.975 226.554V234.594C354.415 233.674 355.055 232.964 355.895 232.464C356.755 231.964 357.755 231.714 358.895 231.714ZM358.415 244.884C359.835 244.884 360.935 244.394 361.715 243.414C362.495 242.414 362.885 241.024 362.885 239.244C362.885 237.504 362.495 236.154 361.715 235.194C360.935 234.234 359.835 233.754 358.415 233.754C356.995 233.754 355.895 234.234 355.115 235.194C354.355 236.154 353.975 237.524 353.975 239.304C353.975 241.084 354.355 242.464 355.115 243.444C355.895 244.404 356.995 244.884 358.415 244.884ZM376.356 231.714C377.636 231.714 378.766 232.024 379.746 232.644C380.726 233.264 381.486 234.144 382.026 235.284C382.566 236.424 382.836 237.744 382.836 239.244C382.836 240.764 382.566 242.104 382.026 243.264C381.486 244.404 380.726 245.294 379.746 245.934C378.766 246.574 377.636 246.894 376.356 246.894C375.216 246.894 374.216 246.644 373.356 246.144C372.516 245.644 371.876 244.934 371.436 244.014V245.634C371.436 245.994 371.326 246.284 371.106 246.504C370.906 246.724 370.616 246.834 370.236 246.834C369.856 246.834 369.556 246.724 369.336 246.504C369.116 246.284 369.006 245.994 369.006 245.634V226.554C369.006 226.214 369.116 225.934 369.336 225.714C369.556 225.494 369.856 225.384 370.236 225.384C370.616 225.384 370.906 225.494 371.106 225.714C371.326 225.914 371.436 226.194 371.436 226.554V234.594C371.876 233.674 372.516 232.964 373.356 232.464C374.216 231.964 375.216 231.714 376.356 231.714ZM375.876 244.884C377.296 244.884 378.396 244.394 379.176 243.414C379.956 242.414 380.346 241.024 380.346 239.244C380.346 237.504 379.956 236.154 379.176 235.194C378.396 234.234 377.296 233.754 375.876 233.754C374.456 233.754 373.356 234.234 372.576 235.194C371.816 236.154 371.436 237.524 371.436 239.304C371.436 241.084 371.816 242.464 372.576 243.444C373.356 244.404 374.456 244.884 375.876 244.884ZM393.697 231.774C394.537 231.714 394.957 232.054 394.957 232.794C394.957 233.114 394.867 233.374 394.687 233.574C394.507 233.754 394.197 233.864 393.757 233.904L392.857 233.994C391.517 234.114 390.517 234.594 389.857 235.434C389.217 236.254 388.897 237.224 388.897 238.344V245.634C388.897 246.034 388.787 246.334 388.567 246.534C388.347 246.734 388.057 246.834 387.697 246.834C387.337 246.834 387.037 246.734 386.797 246.534C386.577 246.314 386.467 246.014 386.467 245.634V232.974C386.467 232.594 386.587 232.304 386.827 232.104C387.067 231.884 387.357 231.774 387.697 231.774C388.017 231.774 388.287 231.884 388.507 232.104C388.727 232.304 388.837 232.584 388.837 232.944V234.624C389.257 233.744 389.847 233.074 390.607 232.614C391.387 232.154 392.277 231.884 393.277 231.804L393.697 231.774ZM398.273 246.834C397.913 246.834 397.613 246.734 397.373 246.534C397.153 246.314 397.043 246.014 397.043 245.634V232.974C397.043 232.594 397.153 232.304 397.373 232.104C397.613 231.884 397.913 231.774 398.273 231.774C398.633 231.774 398.923 231.884 399.143 232.104C399.363 232.304 399.473 232.594 399.473 232.974V245.634C399.473 246.034 399.363 246.334 399.143 246.534C398.923 246.734 398.633 246.834 398.273 246.834ZM398.273 228.624C397.793 228.624 397.403 228.484 397.103 228.204C396.803 227.924 396.653 227.554 396.653 227.094C396.653 226.654 396.803 226.294 397.103 226.014C397.403 225.734 397.793 225.594 398.273 225.594C398.753 225.594 399.143 225.734 399.443 226.014C399.743 226.294 399.893 226.654 399.893 227.094C399.893 227.554 399.743 227.924 399.443 228.204C399.143 228.484 398.753 228.624 398.273 228.624ZM424.74 244.614C425.1 244.614 425.38 244.704 425.58 244.884C425.78 245.064 425.88 245.314 425.88 245.634C425.88 246.334 425.5 246.684 424.74 246.684H412.98C412.64 246.684 412.36 246.584 412.14 246.384C411.92 246.164 411.81 245.904 411.81 245.604C411.81 245.224 411.95 244.894 412.23 244.614L419.46 236.664C420.46 235.544 421.18 234.544 421.62 233.664C422.08 232.764 422.31 231.864 422.31 230.964C422.31 229.804 421.97 228.914 421.29 228.294C420.63 227.674 419.69 227.364 418.47 227.364C417.51 227.364 416.59 227.544 415.71 227.904C414.83 228.244 413.95 228.774 413.07 229.494C412.77 229.734 412.49 229.854 412.23 229.854C412.01 229.854 411.82 229.754 411.66 229.554C411.5 229.334 411.42 229.074 411.42 228.774C411.42 228.354 411.58 228.014 411.9 227.754C412.72 226.994 413.72 226.394 414.9 225.954C416.08 225.514 417.29 225.294 418.53 225.294C420.43 225.294 421.94 225.794 423.06 226.794C424.2 227.794 424.77 229.144 424.77 230.844C424.77 232.064 424.49 233.234 423.93 234.354C423.39 235.474 422.49 236.724 421.23 238.104L415.23 244.614H424.74ZM436.488 246.924C434.068 246.924 432.228 246.004 430.968 244.164C429.708 242.324 429.078 239.644 429.078 236.124C429.078 232.584 429.708 229.894 430.968 228.054C432.228 226.214 434.068 225.294 436.488 225.294C438.908 225.294 440.748 226.214 442.008 228.054C443.268 229.874 443.898 232.554 443.898 236.094C443.898 239.634 443.268 242.324 442.008 244.164C440.748 246.004 438.908 246.924 436.488 246.924ZM436.488 244.854C438.168 244.854 439.408 244.144 440.208 242.724C441.008 241.304 441.408 239.094 441.408 236.094C441.408 233.074 441.008 230.864 440.208 229.464C439.428 228.064 438.188 227.364 436.488 227.364C434.808 227.364 433.568 228.074 432.768 229.494C431.968 230.894 431.568 233.094 431.568 236.094C431.568 239.094 431.968 241.304 432.768 242.724C433.568 244.144 434.808 244.854 436.488 244.854ZM460.717 244.614C461.077 244.614 461.357 244.704 461.557 244.884C461.757 245.064 461.857 245.314 461.857 245.634C461.857 246.334 461.477 246.684 460.717 246.684H448.957C448.617 246.684 448.337 246.584 448.117 246.384C447.897 246.164 447.787 245.904 447.787 245.604C447.787 245.224 447.927 244.894 448.207 244.614L455.437 236.664C456.437 235.544 457.157 234.544 457.597 233.664C458.057 232.764 458.287 231.864 458.287 230.964C458.287 229.804 457.947 228.914 457.267 228.294C456.607 227.674 455.667 227.364 454.447 227.364C453.487 227.364 452.567 227.544 451.687 227.904C450.807 228.244 449.927 228.774 449.047 229.494C448.747 229.734 448.467 229.854 448.207 229.854C447.987 229.854 447.797 229.754 447.637 229.554C447.477 229.334 447.397 229.074 447.397 228.774C447.397 228.354 447.557 228.014 447.877 227.754C448.697 226.994 449.697 226.394 450.877 225.954C452.057 225.514 453.267 225.294 454.507 225.294C456.407 225.294 457.917 225.794 459.037 226.794C460.177 227.794 460.747 229.144 460.747 230.844C460.747 232.064 460.467 233.234 459.907 234.354C459.367 235.474 458.467 236.724 457.207 238.104L451.207 244.614H460.717ZM478.225 244.614C478.585 244.614 478.865 244.704 479.065 244.884C479.265 245.064 479.365 245.314 479.365 245.634C479.365 245.974 479.265 246.234 479.065 246.414C478.885 246.594 478.605 246.684 478.225 246.684H468.295C467.915 246.684 467.625 246.594 467.425 246.414C467.245 246.234 467.155 245.974 467.155 245.634C467.155 245.314 467.255 245.064 467.455 244.884C467.655 244.704 467.935 244.614 468.295 244.614H472.015V228.534L468.745 230.664C468.585 230.764 468.425 230.814 468.265 230.814C467.985 230.814 467.735 230.684 467.515 230.424C467.315 230.164 467.215 229.884 467.215 229.584C467.215 229.164 467.375 228.864 467.695 228.684L472.255 225.714C472.595 225.494 472.945 225.384 473.305 225.384C473.645 225.384 473.925 225.494 474.145 225.714C474.365 225.934 474.475 226.244 474.475 226.644V244.614H478.225ZM492.248 239.694C491.888 239.694 491.608 239.604 491.408 239.424C491.228 239.244 491.138 239.004 491.138 238.704C491.138 238.404 491.228 238.164 491.408 237.984C491.608 237.784 491.888 237.684 492.248 237.684H498.848C499.228 237.684 499.508 237.784 499.688 237.984C499.888 238.164 499.988 238.404 499.988 238.704C499.988 239.004 499.888 239.244 499.688 239.424C499.508 239.604 499.228 239.694 498.848 239.694H492.248ZM524.906 244.614C525.266 244.614 525.546 244.704 525.746 244.884C525.946 245.064 526.046 245.314 526.046 245.634C526.046 246.334 525.666 246.684 524.906 246.684H513.146C512.806 246.684 512.526 246.584 512.306 246.384C512.086 246.164 511.976 245.904 511.976 245.604C511.976 245.224 512.116 244.894 512.396 244.614L519.626 236.664C520.626 235.544 521.346 234.544 521.786 233.664C522.246 232.764 522.476 231.864 522.476 230.964C522.476 229.804 522.136 228.914 521.456 228.294C520.796 227.674 519.856 227.364 518.636 227.364C517.676 227.364 516.756 227.544 515.876 227.904C514.996 228.244 514.116 228.774 513.236 229.494C512.936 229.734 512.656 229.854 512.396 229.854C512.176 229.854 511.986 229.754 511.826 229.554C511.666 229.334 511.586 229.074 511.586 228.774C511.586 228.354 511.746 228.014 512.066 227.754C512.886 226.994 513.886 226.394 515.066 225.954C516.246 225.514 517.456 225.294 518.696 225.294C520.596 225.294 522.106 225.794 523.226 226.794C524.366 227.794 524.936 229.144 524.936 230.844C524.936 232.064 524.656 233.234 524.096 234.354C523.556 235.474 522.656 236.724 521.396 238.104L515.396 244.614H524.906ZM536.654 246.924C534.234 246.924 532.394 246.004 531.134 244.164C529.874 242.324 529.244 239.644 529.244 236.124C529.244 232.584 529.874 229.894 531.134 228.054C532.394 226.214 534.234 225.294 536.654 225.294C539.074 225.294 540.914 226.214 542.174 228.054C543.434 229.874 544.064 232.554 544.064 236.094C544.064 239.634 543.434 242.324 542.174 244.164C540.914 246.004 539.074 246.924 536.654 246.924ZM536.654 244.854C538.334 244.854 539.574 244.144 540.374 242.724C541.174 241.304 541.574 239.094 541.574 236.094C541.574 233.074 541.174 230.864 540.374 229.464C539.594 228.064 538.354 227.364 536.654 227.364C534.974 227.364 533.734 228.074 532.934 229.494C532.134 230.894 531.734 233.094 531.734 236.094C531.734 239.094 532.134 241.304 532.934 242.724C533.734 244.144 534.974 244.854 536.654 244.854ZM560.883 244.614C561.243 244.614 561.523 244.704 561.723 244.884C561.923 245.064 562.023 245.314 562.023 245.634C562.023 246.334 561.643 246.684 560.883 246.684H549.123C548.783 246.684 548.503 246.584 548.283 246.384C548.063 246.164 547.953 245.904 547.953 245.604C547.953 245.224 548.093 244.894 548.373 244.614L555.603 236.664C556.603 235.544 557.323 234.544 557.763 233.664C558.223 232.764 558.453 231.864 558.453 230.964C558.453 229.804 558.113 228.914 557.433 228.294C556.773 227.674 555.833 227.364 554.613 227.364C553.653 227.364 552.733 227.544 551.853 227.904C550.973 228.244 550.093 228.774 549.213 229.494C548.913 229.734 548.633 229.854 548.373 229.854C548.153 229.854 547.963 229.754 547.803 229.554C547.643 229.334 547.563 229.074 547.563 228.774C547.563 228.354 547.723 228.014 548.043 227.754C548.863 226.994 549.863 226.394 551.043 225.954C552.223 225.514 553.433 225.294 554.673 225.294C556.573 225.294 558.083 225.794 559.203 226.794C560.343 227.794 560.913 229.144 560.913 230.844C560.913 232.064 560.633 233.234 560.073 234.354C559.533 235.474 558.633 236.724 557.373 238.104L551.373 244.614H560.883ZM578.871 244.614C579.231 244.614 579.511 244.704 579.711 244.884C579.911 245.064 580.011 245.314 580.011 245.634C580.011 246.334 579.631 246.684 578.871 246.684H567.111C566.771 246.684 566.491 246.584 566.271 246.384C566.051 246.164 565.941 245.904 565.941 245.604C565.941 245.224 566.081 244.894 566.361 244.614L573.591 236.664C574.591 235.544 575.311 234.544 575.751 233.664C576.211 232.764 576.441 231.864 576.441 230.964C576.441 229.804 576.101 228.914 575.421 228.294C574.761 227.674 573.821 227.364 572.601 227.364C571.641 227.364 570.721 227.544 569.841 227.904C568.961 228.244 568.081 228.774 567.201 229.494C566.901 229.734 566.621 229.854 566.361 229.854C566.141 229.854 565.951 229.754 565.791 229.554C565.631 229.334 565.551 229.074 565.551 228.774C565.551 228.354 565.711 228.014 566.031 227.754C566.851 226.994 567.851 226.394 569.031 225.954C570.211 225.514 571.421 225.294 572.661 225.294C574.561 225.294 576.071 225.794 577.191 226.794C578.331 227.794 578.901 229.144 578.901 230.844C578.901 232.064 578.621 233.234 578.061 234.354C577.521 235.474 576.621 236.724 575.361 238.104L569.361 244.614H578.871Z" fill="#2F2E32"/>
</svg>
