<svg width="633" height="690" viewBox="0 0 633 690" fill="none" xmlns="http://www.w3.org/2000/svg">
<g filter="url(#filter0_df_5_10965)">
<circle cx="52.6665" cy="505.101" r="37.7257" transform="rotate(-35.8047 52.6665 505.101)" fill="#78B6BA"/>
<circle cx="52.6665" cy="505.101" r="36.9757" transform="rotate(-35.8047 52.6665 505.101)" stroke="url(#paint0_linear_5_10965)" stroke-opacity="0.8" stroke-width="1.5"/>
<g filter="url(#filter1_d_5_10965)">
<path d="M64.3783 504.313C65.7824 506.26 66.2858 508.393 65.8886 510.714C65.5157 513.018 64.3086 515.165 62.2672 517.155L63.9257 519.454C64.3294 520.014 64.4838 520.587 64.3889 521.173C64.3115 521.784 63.993 522.291 63.4334 522.695C62.8738 523.098 62.2921 523.241 61.6882 523.121C61.1019 523.026 60.6069 522.699 60.2032 522.14L58.5973 519.913C57.1227 520.792 55.5618 521.474 53.9144 521.96C52.2671 522.445 50.697 522.653 49.204 522.583C48.7298 522.592 48.3353 522.507 48.0206 522.327C47.7059 522.147 47.4081 521.863 47.1273 521.473C46.7587 520.962 46.58 520.407 46.5912 519.807C46.6267 519.19 46.8391 518.741 47.2284 518.46C47.4717 518.284 47.7257 518.175 47.9906 518.132C48.2622 518.047 48.6385 517.979 49.1196 517.928C50.7653 517.85 52.2463 517.596 53.5625 517.164C54.9031 516.715 56.1695 516.061 57.3617 515.201C58.9918 514.025 60.0167 512.804 60.4363 511.54C60.8802 510.258 60.6721 509.021 59.8122 507.829C59.3032 507.123 58.6474 506.727 57.8449 506.64C57.0424 506.553 56.1884 506.651 55.283 506.934C54.36 507.193 53.1188 507.626 51.5592 508.233C49.401 509.087 47.5833 509.696 46.1063 510.058C44.6118 510.397 43.0999 510.378 41.5706 510.001C40.0414 509.625 38.68 508.609 37.4865 506.955C36.0649 504.984 35.5595 502.796 35.9703 500.391C36.3811 497.987 37.6071 495.789 39.6485 493.799L37.9899 491.499C37.5863 490.94 37.4319 490.367 37.5268 489.78C37.6042 489.17 37.9227 488.663 38.4823 488.259C39.0419 487.855 39.6236 487.713 40.2275 487.832C40.8138 487.927 41.3088 488.254 41.7125 488.814L43.3447 491.077C46.0303 489.62 48.7876 488.982 51.6168 489.16C52.5166 489.177 53.221 489.538 53.73 490.244C54.0986 490.755 54.2651 491.319 54.2296 491.936C54.2185 492.536 54.0061 492.985 53.5925 493.284C53.3735 493.442 53.1282 493.563 52.8566 493.648C52.6093 493.715 52.2363 493.763 51.7377 493.789C50.2312 493.803 48.905 493.965 47.7591 494.273C46.6199 494.54 45.4421 495.112 44.2255 495.99C42.717 497.078 41.7584 498.288 41.3496 499.618C40.9232 500.924 41.1313 502.162 41.9737 503.329C42.5529 504.132 43.2822 504.605 44.1617 504.747C45.0237 504.865 45.9405 504.777 46.9121 504.483C47.8837 504.189 49.1615 503.73 50.7454 503.105C52.8374 502.262 54.6098 501.668 56.0624 501.323C57.5151 500.978 58.973 500.999 60.436 501.386C61.9059 501.732 63.2199 502.707 64.3783 504.313Z" fill="#549296" shape-rendering="crispEdges"/>
<path d="M65.8886 510.714L65.5928 510.664L65.5924 510.666L65.8886 510.714ZM62.2672 517.155L62.0578 516.94L61.8726 517.121L62.0239 517.331L62.2672 517.155ZM64.3889 521.173L64.0926 521.125L64.0913 521.135L64.3889 521.173ZM61.6882 523.121L61.7463 522.827L61.7361 522.825L61.6882 523.121ZM58.5973 519.913L58.8406 519.738L58.6798 519.515L58.4437 519.656L58.5973 519.913ZM53.9144 521.96L53.9992 522.247L53.9144 521.96ZM49.204 522.583L49.218 522.283L49.2081 522.283L49.1982 522.283L49.204 522.583ZM48.0206 522.327L47.8717 522.588L48.0206 522.327ZM46.5912 519.807L46.2915 519.79L46.2912 519.802L46.5912 519.807ZM47.9906 518.132L48.0387 518.428L48.0598 518.425L48.0801 518.418L47.9906 518.132ZM49.1196 517.928L49.1055 517.628L49.0967 517.629L49.0879 517.629L49.1196 517.928ZM53.5625 517.164L53.656 517.449L53.6578 517.449L53.5625 517.164ZM60.4363 511.54L60.1528 511.442L60.1515 511.446L60.4363 511.54ZM57.8449 506.64L57.8126 506.938L57.8126 506.938L57.8449 506.64ZM55.283 506.934L55.3641 507.223L55.3726 507.221L55.283 506.934ZM51.5592 508.233L51.4504 507.954L51.4488 507.954L51.5592 508.233ZM46.1063 510.058L46.1726 510.351L46.1779 510.35L46.1063 510.058ZM41.5706 510.001L41.4989 510.292L41.4989 510.292L41.5706 510.001ZM35.9703 500.391L35.6746 500.341L35.6746 500.341L35.9703 500.391ZM39.6485 493.799L39.8579 494.013L40.0431 493.833L39.8918 493.623L39.6485 493.799ZM37.5268 489.78L37.8231 489.828L37.8244 489.818L37.5268 489.78ZM40.2275 487.832L40.1693 488.127L40.1796 488.128L40.2275 487.832ZM43.3447 491.077L43.1014 491.252L43.2558 491.466L43.4877 491.34L43.3447 491.077ZM51.6168 489.16L51.5979 489.46L51.6112 489.46L51.6168 489.16ZM54.2296 491.936L53.9299 491.919L53.9297 491.931L54.2296 491.936ZM52.8566 493.648L52.9355 493.938L52.9461 493.934L52.8566 493.648ZM51.7377 493.789L51.7405 494.09L51.7538 494.089L51.7377 493.789ZM47.7591 494.273L47.8275 494.566L47.8371 494.563L47.7591 494.273ZM41.3496 499.618L41.6348 499.711L41.6364 499.706L41.3496 499.618ZM44.1617 504.747L44.1138 505.044L44.121 505.045L44.1617 504.747ZM46.9121 504.483L46.999 504.771L46.999 504.771L46.9121 504.483ZM50.7454 503.105L50.8555 503.385L50.8575 503.384L50.7454 503.105ZM56.0624 501.323L55.9931 501.031L56.0624 501.323ZM60.436 501.386L60.3592 501.676L60.3674 501.678L60.436 501.386ZM64.135 504.489C65.493 506.371 65.9762 508.424 65.5929 510.664L66.1843 510.765C66.5953 508.363 66.0717 506.148 64.6216 504.138L64.135 504.489ZM65.5924 510.666C65.2319 512.893 64.0635 514.985 62.0578 516.94L62.4766 517.37C64.5536 515.345 65.7994 513.142 66.1847 510.762L65.5924 510.666ZM62.0239 517.331L63.6824 519.63L64.1691 519.279L62.5105 516.98L62.0239 517.331ZM63.6824 519.63C64.0477 520.136 64.1729 520.63 64.0927 521.125L64.685 521.221C64.7947 520.544 64.6111 519.892 64.1691 519.279L63.6824 519.63ZM64.0913 521.135C64.0257 521.653 63.7591 522.09 63.2579 522.451L63.6089 522.938C64.227 522.492 64.5974 521.914 64.6865 521.211L64.0913 521.135ZM63.2579 522.451C62.7567 522.813 62.2583 522.928 61.7463 522.827L61.6301 523.416C62.3258 523.553 62.9909 523.384 63.6089 522.938L63.2579 522.451ZM61.7361 522.825C61.2411 522.745 60.8117 522.47 60.4465 521.964L59.9599 522.315C60.402 522.928 60.9626 523.308 61.6403 523.417L61.7361 522.825ZM60.4465 521.964L58.8406 519.738L58.354 520.089L59.9599 522.315L60.4465 521.964ZM58.4437 519.656C56.9907 520.521 55.4529 521.193 53.8296 521.672L53.9992 522.247C55.6706 521.755 57.2547 521.063 58.7509 520.171L58.4437 519.656ZM53.8296 521.672C52.2097 522.149 50.6731 522.351 49.218 522.283L49.19 522.883C50.7209 522.954 52.3246 522.741 53.9992 522.247L53.8296 521.672ZM49.1982 522.283C48.7618 522.292 48.4247 522.213 48.1695 522.067L47.8717 522.588C48.2459 522.801 48.6977 522.893 49.2098 522.883L49.1982 522.283ZM48.1695 522.067C47.9019 521.914 47.6341 521.663 47.3706 521.298L46.884 521.649C47.1821 522.062 47.5098 522.381 47.8717 522.588L48.1695 522.067ZM47.3706 521.298C47.038 520.837 46.8813 520.344 46.8911 519.813L46.2912 519.802C46.2788 520.47 46.4795 521.088 46.884 521.649L47.3706 521.298ZM46.8907 519.824C46.9226 519.269 47.108 518.916 47.4039 518.703L47.0528 518.216C46.5701 518.565 46.3307 519.11 46.2917 519.79L46.8907 519.824ZM47.4039 518.703C47.6139 518.551 47.8251 518.463 48.0387 518.428L47.9424 517.836C47.6264 517.887 47.3294 518.017 47.0528 518.216L47.4039 518.703ZM48.0801 518.418C48.3243 518.342 48.6783 518.276 49.1512 518.226L49.0879 517.629C48.5988 517.681 48.2001 517.752 47.901 517.845L48.0801 518.418ZM49.1337 518.227C50.8014 518.149 52.3098 517.891 53.656 517.449L53.4691 516.879C52.1828 517.301 50.7291 517.552 49.1055 517.628L49.1337 518.227ZM53.6578 517.449C55.0282 516.99 56.3215 516.321 57.5372 515.444L57.1862 514.957C56.0175 515.8 54.778 516.441 53.4672 516.88L53.6578 517.449ZM57.5372 515.444C59.1939 514.249 60.2738 512.982 60.721 511.635L60.1515 511.446C59.7596 512.627 58.7897 513.8 57.1862 514.957L57.5372 515.444ZM60.7198 511.638C61.1986 510.255 60.967 508.917 60.0555 507.653L59.5688 508.004C60.3773 509.125 60.5617 510.261 60.1528 511.442L60.7198 511.638ZM60.0555 507.653C59.5011 506.885 58.7714 506.439 57.8772 506.342L57.8126 506.938C58.5235 507.015 59.1053 507.362 59.5688 508.004L60.0555 507.653ZM57.8772 506.342C57.0271 506.25 56.1314 506.355 55.1934 506.648L55.3726 507.221C56.2454 506.948 57.0576 506.856 57.8126 506.938L57.8772 506.342ZM55.202 506.646C54.2652 506.908 53.0134 507.345 51.4504 507.954L51.668 508.513C53.2241 507.907 54.4549 507.478 55.364 507.223L55.202 506.646ZM51.4488 507.954C49.2974 508.806 47.4936 509.409 46.0348 509.767L46.1779 510.35C47.673 509.983 49.5045 509.369 51.6696 508.512L51.4488 507.954ZM46.0401 509.766C44.5923 510.093 43.1276 510.075 41.6423 509.71L41.4989 510.292C43.0721 510.68 44.6313 510.7 46.1726 510.351L46.0401 509.766ZM41.6423 509.71C40.2005 509.355 38.8942 508.393 37.7298 506.779L37.2432 507.13C38.4658 508.825 39.8822 509.894 41.4989 510.292L41.6423 509.71ZM37.7298 506.779C36.3555 504.874 35.8687 502.768 36.266 500.442L35.6746 500.341C35.2503 502.825 35.7743 505.094 37.2432 507.13L37.7298 506.779ZM36.266 500.442C36.6644 498.11 37.8541 495.967 39.8579 494.013L39.4391 493.584C37.3602 495.611 36.0977 497.863 35.6746 500.341L36.266 500.442ZM39.8918 493.623L38.2332 491.324L37.7466 491.675L39.4052 493.974L39.8918 493.623ZM38.2332 491.324C37.868 490.817 37.7428 490.323 37.823 489.828L37.2307 489.732C37.121 490.41 37.3046 491.062 37.7466 491.675L38.2332 491.324ZM37.8244 489.818C37.89 489.3 38.1566 488.864 38.6578 488.502L38.3068 488.016C37.6887 488.461 37.3183 489.039 37.2292 489.743L37.8244 489.818ZM38.6578 488.502C39.1589 488.141 39.6574 488.025 40.1694 488.127L40.2856 487.538C39.5899 487.401 38.9248 487.57 38.3068 488.016L38.6578 488.502ZM40.1796 488.128C40.6746 488.209 41.1039 488.483 41.4692 488.99L41.9558 488.639C41.5137 488.026 40.9531 487.646 40.2754 487.536L40.1796 488.128ZM41.4692 488.99L43.1014 491.252L43.588 490.901L41.9558 488.639L41.4692 488.99ZM43.4877 491.34C46.1277 489.909 48.8293 489.285 51.5979 489.46L51.6357 488.861C48.7459 488.678 45.9328 489.332 43.2017 490.813L43.4877 491.34ZM51.6112 489.46C52.4205 489.475 53.0352 489.793 53.4867 490.419L53.9733 490.068C53.4069 489.283 52.6128 488.879 51.6224 488.86L51.6112 489.46ZM53.4867 490.419C53.8158 490.875 53.9616 491.372 53.9301 491.919L54.5291 491.953C54.5686 491.266 54.3814 490.634 53.9733 490.068L53.4867 490.419ZM53.9297 491.931C53.9199 492.455 53.7399 492.807 53.417 493.04L53.768 493.527C54.2723 493.163 54.517 492.617 54.5296 491.942L53.9297 491.931ZM53.417 493.04C53.2255 493.178 53.0095 493.286 52.767 493.362L52.9461 493.934C53.2469 493.84 53.5215 493.705 53.768 493.527L53.417 493.04ZM52.7777 493.359C52.5621 493.417 52.215 493.463 51.7217 493.49L51.7538 494.089C52.2577 494.062 52.6565 494.014 52.9355 493.937L52.7777 493.359ZM51.735 493.489C50.2095 493.503 48.857 493.667 47.681 493.984L47.8371 494.563C48.9529 494.262 50.253 494.103 51.7405 494.089L51.735 493.489ZM47.6906 493.981C46.5037 494.259 45.29 494.852 44.05 495.747L44.401 496.233C45.5941 495.373 46.7361 494.821 47.8275 494.565L47.6906 493.981ZM44.05 495.747C42.5062 496.86 41.4964 498.119 41.0628 499.53L41.6364 499.706C42.0204 498.456 42.9279 497.296 44.401 496.233L44.05 495.747ZM41.0644 499.525C40.6067 500.927 40.8351 502.264 41.7304 503.505L42.217 503.154C41.4275 502.059 41.2398 500.921 41.6348 499.711L41.0644 499.525ZM41.7304 503.505C42.3505 504.364 43.1467 504.887 44.1138 505.043L44.2097 504.451C43.4178 504.323 42.7553 503.9 42.217 503.154L41.7304 503.505ZM44.121 505.045C45.0323 505.169 45.9929 505.075 46.999 504.771L46.8252 504.196C45.8881 504.48 45.0151 504.561 44.2024 504.45L44.121 505.045ZM46.999 504.771C47.9819 504.473 49.2683 504.01 50.8555 503.385L50.6353 502.826C49.0547 503.45 47.7856 503.906 46.8252 504.196L46.999 504.771ZM50.8575 503.384C52.9419 502.544 54.6991 501.955 56.1318 501.615L55.9931 501.031C54.5205 501.381 52.7329 501.981 50.6332 502.827L50.8575 503.384ZM56.1318 501.615C57.5357 501.281 58.9433 501.302 60.3593 501.676L60.5128 501.096C59.0026 500.697 57.4946 500.674 55.9931 501.031L56.1318 501.615ZM60.3674 501.678C61.7474 502.003 63.0055 502.923 64.135 504.489L64.6216 504.138C63.4344 502.492 62.0643 501.461 60.5046 501.094L60.3674 501.678Z" fill="url(#paint1_linear_5_10965)"/>
</g>
</g>
<g filter="url(#filter2_dif_5_10965)">
<mask id="path-5-inside-1_5_10965" fill="white">
<path fill-rule="evenodd" clip-rule="evenodd" d="M154.064 66.2252C162.037 85.5517 185.447 94.2275 206.351 85.6032C227.255 76.9789 237.738 54.3202 229.764 34.9937C221.791 15.6672 198.381 6.9914 177.477 15.6157C156.573 24.2401 146.09 46.8987 154.064 66.2252ZM175.261 58.114C179.205 67.6748 190.154 72.2277 199.714 68.2833C209.275 64.3388 213.828 53.3906 209.884 43.8298C205.939 34.269 194.991 29.716 185.43 33.6605C175.869 37.6049 171.316 48.5531 175.261 58.114Z"/>
</mask>
<path fill-rule="evenodd" clip-rule="evenodd" d="M154.064 66.2252C162.037 85.5517 185.447 94.2275 206.351 85.6032C227.255 76.9789 237.738 54.3202 229.764 34.9937C221.791 15.6672 198.381 6.9914 177.477 15.6157C156.573 24.2401 146.09 46.8987 154.064 66.2252ZM175.261 58.114C179.205 67.6748 190.154 72.2277 199.714 68.2833C209.275 64.3388 213.828 53.3906 209.884 43.8298C205.939 34.269 194.991 29.716 185.43 33.6605C175.869 37.6049 171.316 48.5531 175.261 58.114Z" fill="#E4CC8B"/>
<path d="M206.161 85.141C185.477 93.6744 162.38 85.0722 154.526 66.0345L153.602 66.4159C161.694 86.0311 185.417 94.7807 206.542 86.0654L206.161 85.141ZM229.302 35.1844C237.157 54.2222 226.844 76.6076 206.161 85.141L206.542 86.0654C227.667 77.3501 238.319 54.4183 230.227 34.803L229.302 35.1844ZM177.668 16.0779C198.351 7.54456 221.448 16.1467 229.302 35.1844L230.227 34.803C222.134 15.1878 198.411 6.43824 177.286 15.1535L177.668 16.0779ZM154.526 66.0345C146.672 46.9967 156.984 24.6113 177.668 16.0779L177.286 15.1535C156.162 23.8688 145.509 46.8006 153.602 66.4159L154.526 66.0345ZM199.524 67.8211C190.218 71.6602 179.562 67.2288 175.723 57.9233L174.799 58.3047C178.848 68.1207 190.089 72.7953 199.905 68.7455L199.524 67.8211ZM209.422 44.0205C213.261 53.3261 208.829 63.9819 199.524 67.8211L199.905 68.7455C209.721 64.6957 214.396 53.4552 210.346 43.6391L209.422 44.0205ZM185.621 34.1227C194.926 30.2836 205.582 34.715 209.422 44.0205L210.346 43.6391C206.296 33.823 195.056 29.1485 185.24 33.1983L185.621 34.1227ZM175.723 57.9233C171.884 48.6177 176.315 37.9618 185.621 34.1227L185.24 33.1983C175.423 37.2481 170.749 48.4886 174.799 58.3047L175.723 57.9233Z" fill="url(#paint2_linear_5_10965)" mask="url(#path-5-inside-1_5_10965)"/>
</g>
<g filter="url(#filter3_f_5_10965)">
<rect x="201.731" y="38.0179" width="441.953" height="234.085" rx="20" transform="rotate(12.6243 201.731 38.0179)" fill="#E4CC8B"/>
<rect x="202.489" y="39.2123" width="439.953" height="232.085" rx="19" transform="rotate(12.6243 202.489 39.2123)" stroke="url(#paint3_linear_5_10965)" stroke-width="2"/>
</g>
<g opacity="0.7" filter="url(#filter4_d_5_10965)">
<rect x="204.344" y="180.895" width="235.535" height="41.9687" rx="20" transform="rotate(12.127 204.344 180.895)" fill="#A79154"/>
<rect x="204.728" y="181.489" width="234.535" height="40.9687" rx="19.5" transform="rotate(12.127 204.728 181.489)" stroke="#AC975E"/>
</g>
<g filter="url(#filter5_df_5_10965)">
<rect x="122.493" y="252.022" width="441.953" height="234.085" rx="20" transform="rotate(-10 122.493 252.022)" fill="#DF8BA8"/>
<rect x="123.651" y="252.833" width="439.953" height="232.085" rx="19" transform="rotate(-10 123.651 252.833)" stroke="url(#paint4_linear_5_10965)" stroke-width="2"/>
<rect x="123.651" y="252.833" width="439.953" height="232.085" rx="19" transform="rotate(-10 123.651 252.833)" stroke="url(#paint5_linear_5_10965)" stroke-opacity="0.2" stroke-width="2"/>
</g>
<g opacity="0.7" filter="url(#filter6_d_5_10965)">
<rect x="184.291" y="352.883" width="235.535" height="41.9687" rx="20" transform="rotate(-10 184.291 352.883)" fill="#C95D82"/>
<rect x="184.87" y="353.289" width="234.535" height="40.9687" rx="19.5" transform="rotate(-10 184.87 353.289)" stroke="#D06B8E"/>
</g>
<g filter="url(#filter7_df_5_10965)">
<rect x="115.002" y="427.795" width="441.953" height="250.372" rx="40" transform="rotate(-25 115.002 427.795)" fill="#77B5B9"/>
<rect x="116.331" y="428.278" width="439.953" height="248.372" rx="39" transform="rotate(-25 116.331 428.278)" stroke="url(#paint6_linear_5_10965)" stroke-width="2"/>
<rect x="116.331" y="428.278" width="439.953" height="248.372" rx="39" transform="rotate(-25 116.331 428.278)" stroke="url(#paint7_linear_5_10965)" stroke-opacity="0.3" stroke-width="2"/>
</g>
<g opacity="0.7" filter="url(#filter8_d_5_10965)">
<rect x="216.127" y="527.631" width="235.535" height="41.9687" rx="20" transform="rotate(-25 216.127 527.631)" fill="#458286"/>
<rect x="216.791" y="527.872" width="234.535" height="40.9687" rx="19.5" transform="rotate(-25 216.791 527.872)" stroke="#477E82"/>
</g>
<g opacity="0.7" filter="url(#filter9_d_5_10965)">
<rect x="465.193" y="402.935" width="82.2753" height="62.8419" rx="10" transform="rotate(-25 465.193 402.935)" fill="#458286"/>
<rect x="465.858" y="403.177" width="81.2753" height="61.8419" rx="9.5" transform="rotate(-25 465.858 403.177)" stroke="#477E82"/>
</g>
<g filter="url(#filter10_dif_5_10965)">
<circle cx="493.079" cy="85.1842" r="51.4988" transform="rotate(49.1397 493.079 85.1842)" fill="#E4CC8B"/>
<circle cx="493.079" cy="85.1842" r="50.7488" transform="rotate(49.1397 493.079 85.1842)" stroke="url(#paint8_linear_5_10965)" stroke-opacity="0.8" stroke-width="1.5"/>
<g filter="url(#filter11_d_5_10965)">
<path d="M497.434 104.063C494.812 106.33 491.806 107.326 488.416 107.05C485.054 106.807 481.812 105.343 478.688 102.66L475.591 105.339C474.837 105.991 474.032 106.286 473.177 106.224C472.288 106.19 471.518 105.797 470.866 105.043C470.214 104.289 469.935 103.47 470.03 102.586C470.092 101.73 470.5 100.976 471.253 100.324L474.252 97.7304C472.8 95.7206 471.62 93.5615 470.712 91.2531C469.804 88.9447 469.305 86.712 469.215 84.555C469.141 83.8738 469.214 83.2953 469.433 82.8196C469.652 82.3439 470.023 81.8793 470.548 81.4257C471.236 80.8303 472.012 80.5025 472.877 80.4422C473.77 80.4147 474.443 80.6631 474.896 81.1874C475.18 81.5152 475.37 81.8668 475.465 82.2424C475.622 82.6224 475.768 83.1552 475.903 83.8409C476.223 86.1989 476.778 88.2974 477.567 90.1363C478.384 92.008 479.487 93.7468 480.876 95.3527C482.775 97.5485 484.661 98.8678 486.534 99.3105C488.435 99.7861 490.188 99.3293 491.794 97.9402C492.745 97.118 493.231 96.1241 493.254 94.9583C493.277 93.7926 493.027 92.5763 492.505 91.3096C492.015 90.0146 491.234 88.2838 490.162 86.1171C488.658 83.1205 487.551 80.5827 486.842 78.5037C486.165 76.3963 486 74.2185 486.347 71.9703C486.694 69.722 487.982 67.634 490.21 65.7062C492.865 63.4099 495.948 62.4042 499.461 62.6892C502.973 62.9741 506.291 64.4585 509.415 67.1423L512.512 64.4633C513.266 63.8112 514.07 63.5162 514.926 63.5781C515.815 63.6117 516.585 64.0054 517.237 64.7592C517.889 65.513 518.168 66.3319 518.073 67.216C518.011 68.0717 517.603 68.8255 516.849 69.4776L513.801 72.1141C516.239 75.7927 517.509 79.6788 517.612 83.7722C517.702 85.069 517.272 86.1285 516.322 86.9506C515.634 87.546 514.843 87.8574 513.95 87.885C513.086 87.9453 512.412 87.6968 511.93 87.1397C511.675 86.8447 511.469 86.5073 511.313 86.1272C511.184 85.78 511.069 85.2494 510.967 84.5354C510.755 82.3696 510.354 80.4819 509.764 78.8724C509.235 77.2673 508.262 75.6455 506.844 74.0068C505.087 71.9749 503.224 70.7495 501.258 70.3307C499.324 69.8835 497.571 70.3403 495.997 71.701C494.916 72.6366 494.329 73.7461 494.236 75.0297C494.176 76.2849 494.419 77.5928 494.966 78.9534C495.512 80.314 496.336 82.094 497.436 84.2934C498.916 87.1962 499.996 89.6707 500.678 91.7169C501.359 93.7631 501.514 95.8634 501.143 98.0177C500.833 100.177 499.597 102.191 497.434 104.063Z" fill="#BAA365"/>
<path d="M488.416 107.05L488.44 106.751L488.438 106.751L488.416 107.05ZM478.688 102.66L478.883 102.432L478.687 102.264L478.492 102.433L478.688 102.66ZM473.177 106.224L473.198 105.924L473.188 105.924L473.177 106.224ZM470.03 102.586L470.328 102.618L470.329 102.608L470.03 102.586ZM474.252 97.7304L474.448 97.9573L474.656 97.7775L474.495 97.5547L474.252 97.7304ZM470.712 91.2531L470.433 91.3629L470.712 91.2531ZM469.215 84.555L469.515 84.5425L469.514 84.5326L469.513 84.5228L469.215 84.555ZM469.433 82.8196L469.16 82.6943L469.433 82.8196ZM472.877 80.4422L472.867 80.1421L472.856 80.1429L472.877 80.4422ZM475.465 82.2424L475.175 82.3165L475.18 82.3372L475.188 82.3569L475.465 82.2424ZM475.903 83.8409L476.2 83.8004L476.199 83.7917L476.197 83.783L475.903 83.8409ZM477.567 90.1363L477.291 90.2546L477.292 90.2563L477.567 90.1363ZM486.534 99.3105L486.607 99.0195L486.603 99.0186L486.534 99.3105ZM493.254 94.9583L492.954 94.9524L493.254 94.9583ZM492.505 91.3096L492.224 91.4159L492.227 91.4241L492.505 91.3096ZM490.162 86.1171L490.43 85.9841L490.43 85.9826L490.162 86.1171ZM486.842 78.5037L486.556 78.5954L486.558 78.6006L486.842 78.5037ZM486.347 71.9703L486.05 71.9245L486.05 71.9245L486.347 71.9703ZM499.461 62.6892L499.485 62.3902L499.461 62.6892ZM509.415 67.1423L509.219 67.3698L509.415 67.5384L509.611 67.3692L509.415 67.1423ZM514.926 63.5781L514.904 63.8775L514.915 63.8779L514.926 63.5781ZM518.073 67.216L517.774 67.184L517.774 67.1943L518.073 67.216ZM513.801 72.1141L513.605 71.8872L513.406 72.0598L513.551 72.2798L513.801 72.1141ZM517.612 83.7722L517.312 83.7797L517.313 83.793L517.612 83.7722ZM513.95 87.885L513.941 87.5849L513.929 87.5857L513.95 87.885ZM511.313 86.1272L511.031 86.2314L511.035 86.2417L511.313 86.1272ZM510.967 84.5354L510.668 84.5647L510.67 84.5778L510.967 84.5354ZM509.764 78.8724L509.479 78.9664L509.482 78.9757L509.764 78.8724ZM501.258 70.3306L501.19 70.623L501.195 70.6241L501.258 70.3306ZM494.236 75.0297L493.937 75.008L493.936 75.0153L494.236 75.0297ZM494.966 78.9534L494.687 79.0653L494.966 78.9534ZM497.436 84.2934L497.168 84.4277L497.169 84.4297L497.436 84.2934ZM500.678 91.7169L500.962 91.6221L500.678 91.7169ZM501.143 98.0177L500.848 97.9668L500.846 97.9751L501.143 98.0177ZM497.238 103.836C494.675 106.052 491.749 107.021 488.44 106.751L488.392 107.349C491.864 107.632 494.949 106.609 497.63 104.289L497.238 103.836ZM488.438 106.751C485.153 106.513 481.969 105.083 478.883 102.432L478.492 102.887C481.654 105.603 484.955 107.101 488.394 107.35L488.438 106.751ZM478.492 102.433L475.395 105.112L475.787 105.566L478.884 102.887L478.492 102.433ZM475.395 105.112C474.69 105.721 473.962 105.98 473.198 105.925L473.155 106.523C474.103 106.592 474.984 106.261 475.787 105.566L475.395 105.112ZM473.188 105.924C472.393 105.894 471.698 105.546 471.093 104.847L470.639 105.239C471.338 106.047 472.183 106.486 473.165 106.524L473.188 105.924ZM471.093 104.847C470.488 104.147 470.243 103.409 470.328 102.618L469.732 102.554C469.627 103.531 469.94 104.431 470.639 105.239L471.093 104.847ZM470.329 102.608C470.384 101.844 470.746 101.16 471.45 100.551L471.057 100.097C470.254 100.792 469.799 101.616 469.731 102.564L470.329 102.608ZM471.45 100.551L474.448 97.9573L474.056 97.5035L471.057 100.097L471.45 100.551ZM474.495 97.5547C473.058 95.5652 471.89 93.4283 470.991 91.1432L470.433 91.3629C471.35 93.6946 472.542 95.8759 474.009 97.9061L474.495 97.5547ZM470.991 91.1432C470.093 88.8614 469.603 86.6616 469.515 84.5425L468.915 84.5674C469.007 86.7624 469.514 89.028 470.433 91.3629L470.991 91.1432ZM469.513 84.5228C469.444 83.8792 469.515 83.3585 469.705 82.945L469.16 82.6943C468.913 83.2322 468.839 83.8683 468.917 84.5872L469.513 84.5228ZM469.705 82.945C469.901 82.5186 470.242 82.0868 470.744 81.6526L470.351 81.1988C469.804 81.6717 469.402 82.1692 469.16 82.6943L469.705 82.945ZM470.744 81.6526C471.386 81.0974 472.101 80.797 472.898 80.7415L472.856 80.1429C471.923 80.208 471.086 80.5632 470.351 81.1988L470.744 81.6526ZM472.886 80.742C473.717 80.7164 474.291 80.9465 474.67 81.3837L475.123 80.9912C474.594 80.3797 473.823 80.1129 472.867 80.1423L472.886 80.742ZM474.67 81.3837C474.926 81.6804 475.092 81.9911 475.175 82.3165L475.756 82.1683C475.647 81.7425 475.434 81.3499 475.123 80.9912L474.67 81.3837ZM475.188 82.3569C475.334 82.7103 475.475 83.221 475.608 83.8987L476.197 83.783C476.061 83.0895 475.91 82.5345 475.743 82.128L475.188 82.3569ZM475.605 83.8813C475.929 86.2612 476.49 88.3866 477.291 90.2545L477.842 90.0181C477.066 88.2082 476.518 86.1366 476.2 83.8004L475.605 83.8813ZM477.292 90.2563C478.121 92.1568 479.241 93.9211 480.649 95.549L481.103 95.1564C479.732 93.5725 478.646 91.8592 477.842 90.0163L477.292 90.2563ZM480.649 95.549C482.57 97.7696 484.507 99.1395 486.465 99.6025L486.603 99.0186C484.816 98.596 482.981 97.3275 481.103 95.1564L480.649 95.549ZM486.461 99.6016C488.466 100.103 490.318 99.6138 491.991 98.167L491.598 97.7133C490.059 99.0447 488.404 99.4691 486.607 99.0195L486.461 99.6016ZM491.991 98.167C493 97.2941 493.53 96.2222 493.554 94.9642L492.954 94.9524C492.933 96.026 492.49 96.9419 491.598 97.7133L491.991 98.167ZM493.554 94.9642C493.578 93.7506 493.318 92.4934 492.782 91.1952L492.227 91.4241C492.737 92.6593 492.976 93.8345 492.954 94.9524L493.554 94.9642ZM492.785 91.2035C492.29 89.895 491.504 88.1541 490.43 85.9841L489.893 86.2502C490.963 88.4135 491.739 90.1342 492.224 91.4158L492.785 91.2035ZM490.43 85.9826C488.929 82.9925 487.829 80.468 487.126 78.4068L486.558 78.6006C487.274 80.6973 488.387 83.2485 489.893 86.2516L490.43 85.9826ZM487.127 78.4119C486.465 76.3502 486.303 74.2196 486.643 72.016L486.05 71.9245C485.696 74.2175 485.864 76.4425 486.556 78.5954L487.127 78.4119ZM486.643 72.016C486.977 69.8567 488.216 67.8283 490.407 65.9331L490.014 65.4793C487.748 67.4397 486.411 69.5873 486.05 71.9245L486.643 72.016ZM490.407 65.9331C493 63.6897 496.004 62.7097 499.437 62.9882L499.485 62.3902C495.893 62.0988 492.73 63.1302 490.014 65.4793L490.407 65.9331ZM499.437 62.9882C502.875 63.2672 506.135 64.7202 509.219 67.3698L509.61 66.9147C506.447 64.1968 503.071 62.6811 499.485 62.3902L499.437 62.9882ZM509.611 67.3692L512.708 64.6902L512.316 64.2364L509.219 66.9154L509.611 67.3692ZM512.708 64.6902C513.412 64.0811 514.141 63.8221 514.904 63.8773L514.948 63.2789C514 63.2103 513.119 63.5414 512.316 64.2364L512.708 64.6902ZM514.915 63.8779C515.71 63.9079 516.405 64.2561 517.01 64.9554L517.464 64.5629C516.765 63.7546 515.92 63.3155 514.937 63.2783L514.915 63.8779ZM517.01 64.9554C517.615 65.6547 517.859 66.393 517.775 67.184L518.371 67.2479C518.476 66.2707 518.163 65.3712 517.464 64.5629L517.01 64.9554ZM517.774 67.1943C517.718 67.9578 517.357 68.6416 516.653 69.2507L517.046 69.7045C517.849 69.0095 518.304 68.1856 518.372 67.2376L517.774 67.1943ZM516.653 69.2507L513.605 71.8872L513.998 72.341L517.046 69.7045L516.653 69.2507ZM513.551 72.2798C515.96 75.9152 517.21 79.747 517.312 83.7797L517.912 83.7646C517.807 79.6105 516.517 75.6702 514.051 71.9484L513.551 72.2798ZM517.313 83.793C517.397 84.9995 517.002 85.9659 516.126 86.7237L516.518 87.1775C517.543 86.2912 518.008 85.1385 517.911 83.7513L517.313 83.793ZM516.126 86.7237C515.489 87.2749 514.764 87.5597 513.941 87.5851L513.959 88.1848C514.923 88.1551 515.779 87.817 516.518 87.1775L516.126 86.7237ZM513.929 87.5857C513.14 87.6407 512.566 87.416 512.157 86.9434L511.704 87.336C512.259 87.9777 513.031 88.2498 513.971 88.1842L513.929 87.5857ZM512.157 86.9434C511.924 86.6742 511.735 86.3646 511.59 86.0128L511.035 86.2417C511.204 86.6499 511.426 87.0153 511.704 87.336L512.157 86.9434ZM511.594 86.0231C511.477 85.7067 511.365 85.2018 511.264 84.493L510.67 84.5778C510.773 85.297 510.891 85.8533 511.031 86.2313L511.594 86.0231ZM511.265 84.5062C511.052 82.3215 510.646 80.4079 510.046 78.7692L509.482 78.9757C510.062 80.5559 510.458 82.4177 510.668 84.5647L511.265 84.5062ZM510.049 78.7785C509.505 77.1268 508.508 75.4711 507.071 73.8105L506.617 74.2031C508.016 75.8199 508.965 77.4078 509.479 78.9663L510.049 78.7785ZM507.071 73.8105C505.285 71.7457 503.369 70.4736 501.32 70.0372L501.195 70.6241C503.08 71.0253 504.888 72.2041 506.617 74.2031L507.071 73.8105ZM501.325 70.0384C499.293 69.5684 497.443 70.0542 495.801 71.4741L496.194 71.9279C497.699 70.6263 499.355 70.1985 501.19 70.6229L501.325 70.0384ZM495.801 71.4741C494.667 72.4554 494.036 73.6359 493.937 75.008L494.535 75.0514C494.622 73.8563 495.165 72.8177 496.194 71.9279L495.801 71.4741ZM493.936 75.0153C493.874 76.3203 494.127 77.6713 494.687 79.0653L495.244 78.8416C494.711 77.5144 494.478 76.2496 494.536 75.0441L493.936 75.0153ZM494.687 79.0653C495.238 80.4368 496.066 82.2251 497.168 84.4277L497.705 84.1592C496.606 81.9629 495.786 80.1912 495.244 78.8416L494.687 79.0653ZM497.169 84.4297C498.645 87.3251 499.718 89.7849 500.393 91.8116L500.962 91.6221C500.275 89.5564 499.187 87.0673 497.704 84.1572L497.169 84.4297ZM500.393 91.8116C501.059 93.8103 501.21 95.8605 500.848 97.9668L501.439 98.0687C501.818 95.8662 501.66 93.7159 500.962 91.6221L500.393 91.8116ZM500.846 97.9751C500.55 100.043 499.363 101.997 497.238 103.836L497.63 104.289C499.831 102.386 501.117 100.311 501.44 98.0604L500.846 97.9751Z" fill="url(#paint9_linear_5_10965)"/>
</g>
</g>
<g filter="url(#filter12_dif_5_10965)">
<mask id="path-25-inside-2_5_10965" fill="white">
<path fill-rule="evenodd" clip-rule="evenodd" d="M131.856 375.654C157.713 375.654 178.673 354.694 178.673 328.837C178.673 302.981 157.713 282.02 131.856 282.02C106 282.02 85.0392 302.981 85.0392 328.837C85.0392 354.694 106 375.654 131.856 375.654ZM132.793 353.182C145.721 353.182 156.201 342.702 156.201 329.774C156.201 316.846 145.721 306.365 132.793 306.365C119.864 306.365 109.384 316.846 109.384 329.774C109.384 342.702 119.864 353.182 132.793 353.182Z"/>
</mask>
<path fill-rule="evenodd" clip-rule="evenodd" d="M131.856 375.654C157.713 375.654 178.673 354.694 178.673 328.837C178.673 302.981 157.713 282.02 131.856 282.02C106 282.02 85.0392 302.981 85.0392 328.837C85.0392 354.694 106 375.654 131.856 375.654ZM132.793 353.182C145.721 353.182 156.201 342.702 156.201 329.774C156.201 316.846 145.721 306.365 132.793 306.365C119.864 306.365 109.384 316.846 109.384 329.774C109.384 342.702 119.864 353.182 132.793 353.182Z" fill="#E08BA8"/>
<path d="M177.973 328.837C177.973 354.307 157.326 374.954 131.856 374.954V376.354C158.099 376.354 179.373 355.08 179.373 328.837H177.973ZM131.856 282.72C157.326 282.72 177.973 303.368 177.973 328.837H179.373C179.373 302.594 158.099 281.32 131.856 281.32V282.72ZM85.7392 328.837C85.7392 303.368 106.386 282.72 131.856 282.72V281.32C105.613 281.32 84.3392 302.594 84.3392 328.837H85.7392ZM131.856 374.954C106.386 374.954 85.7392 354.307 85.7392 328.837H84.3392C84.3392 355.08 105.613 376.354 131.856 376.354V374.954ZM155.501 329.774C155.501 342.315 145.334 352.482 132.793 352.482V353.882C146.107 353.882 156.901 343.088 156.901 329.774H155.501ZM132.793 307.065C145.334 307.065 155.501 317.232 155.501 329.774H156.901C156.901 316.459 146.107 305.665 132.793 305.665V307.065ZM110.084 329.774C110.084 317.232 120.251 307.065 132.793 307.065V305.665C119.478 305.665 108.684 316.459 108.684 329.774H110.084ZM132.793 352.482C120.251 352.482 110.084 342.315 110.084 329.774H108.684C108.684 343.088 119.478 353.882 132.793 353.882V352.482Z" fill="url(#paint10_linear_5_10965)" fill-opacity="0.6" mask="url(#path-25-inside-2_5_10965)"/>
</g>
<g filter="url(#filter13_dif_5_10965)">
<mask id="path-27-inside-3_5_10965" fill="white">
<path fill-rule="evenodd" clip-rule="evenodd" d="M205.06 570.082C199.869 568.197 194.133 570.876 192.247 576.067L167.106 645.276C165.22 650.467 167.9 656.204 173.091 658.09L242.3 683.231C247.491 685.116 253.228 682.437 255.113 677.246L280.254 608.037C282.14 602.846 279.461 597.109 274.27 595.223L205.06 570.082ZM210.767 589.091C208.172 588.148 205.303 589.488 204.36 592.083L186.994 639.889C186.051 642.484 187.391 645.353 189.987 646.296L237.792 663.662C240.388 664.604 243.256 663.265 244.199 660.669L261.565 612.864C262.508 610.268 261.168 607.4 258.573 606.457L210.767 589.091Z"/>
</mask>
<path fill-rule="evenodd" clip-rule="evenodd" d="M205.06 570.082C199.869 568.197 194.133 570.876 192.247 576.067L167.106 645.276C165.22 650.467 167.9 656.204 173.091 658.09L242.3 683.231C247.491 685.116 253.228 682.437 255.113 677.246L280.254 608.037C282.14 602.846 279.461 597.109 274.27 595.223L205.06 570.082ZM210.767 589.091C208.172 588.148 205.303 589.488 204.36 592.083L186.994 639.889C186.051 642.484 187.391 645.353 189.987 646.296L237.792 663.662C240.388 664.604 243.256 663.265 244.199 660.669L261.565 612.864C262.508 610.268 261.168 607.4 258.573 606.457L210.767 589.091Z" fill="#78B6BA"/>
<path d="M192.247 576.067L192.905 576.306L192.247 576.067ZM205.06 570.082L205.299 569.424L205.06 570.082ZM167.106 645.276L166.448 645.037L167.106 645.276ZM173.091 658.09L173.33 657.432L173.091 658.09ZM242.3 683.231L242.061 683.889L242.3 683.231ZM274.27 595.223L274.031 595.881L274.27 595.223ZM204.36 592.083L205.018 592.322L204.36 592.083ZM210.767 589.091L211.006 588.433L210.767 589.091ZM186.994 639.889L186.336 639.65L186.994 639.889ZM189.987 646.296L190.226 645.638L189.987 646.296ZM237.792 663.662L237.553 664.32L237.792 663.662ZM258.573 606.457L258.334 607.115L258.573 606.457ZM192.905 576.306C194.659 571.478 199.994 568.987 204.821 570.74L205.299 569.424C199.745 567.407 193.607 570.274 191.589 575.828L192.905 576.306ZM167.764 645.515L192.905 576.306L191.589 575.828L166.448 645.037L167.764 645.515ZM173.33 657.432C168.502 655.678 166.01 650.343 167.764 645.515L166.448 645.037C164.43 650.591 167.297 656.73 172.852 658.747L173.33 657.432ZM242.539 682.573L173.33 657.432L172.852 658.747L242.061 683.889L242.539 682.573ZM254.455 677.007C252.702 681.835 247.366 684.326 242.539 682.573L242.061 683.889C247.615 685.906 253.753 683.039 255.771 677.485L254.455 677.007ZM279.596 607.798L254.455 677.007L255.771 677.485L280.912 608.276L279.596 607.798ZM274.031 595.881C278.858 597.635 281.35 602.97 279.596 607.798L280.912 608.276C282.93 602.721 280.063 596.583 274.509 594.565L274.031 595.881ZM204.821 570.74L274.031 595.881L274.509 594.565L205.299 569.424L204.821 570.74ZM205.018 592.322C205.829 590.09 208.296 588.938 210.528 589.749L211.006 588.433C208.047 587.358 204.777 588.885 203.702 591.844L205.018 592.322ZM187.652 640.128L205.018 592.322L203.702 591.844L186.336 639.65L187.652 640.128ZM190.226 645.638C187.994 644.827 186.841 642.36 187.652 640.128L186.336 639.65C185.262 642.609 186.789 645.879 189.748 646.954L190.226 645.638ZM238.031 663.004L190.226 645.638L189.748 646.954L237.553 664.32L238.031 663.004ZM243.541 660.43C242.73 662.662 240.263 663.815 238.031 663.004L237.553 664.32C240.512 665.394 243.782 663.867 244.857 660.908L243.541 660.43ZM260.907 612.625L243.541 660.43L244.857 660.908L262.223 613.103L260.907 612.625ZM258.334 607.115C260.566 607.926 261.718 610.392 260.907 612.625L262.223 613.103C263.298 610.144 261.771 606.874 258.812 605.799L258.334 607.115ZM210.528 589.749L258.334 607.115L258.812 605.799L211.006 588.433L210.528 589.749Z" fill="url(#paint11_linear_5_10965)" fill-opacity="0.5" mask="url(#path-27-inside-3_5_10965)"/>
</g>
<g filter="url(#filter14_di_5_10965)">
<circle cx="407.14" cy="179.023" r="46.817" fill="#E08CA9"/>
</g>
<g filter="url(#filter15_if_5_10965)">
<path d="M107.545 170.033C109.152 173.986 109.125 177.883 107.463 181.725C105.85 185.547 102.863 188.748 98.4996 191.328L100.398 195.997C100.86 197.134 100.886 198.188 100.475 199.161C100.085 200.183 99.3214 200.926 98.1851 201.388C97.0487 201.85 95.9841 201.851 94.9911 201.391C94.0182 200.98 93.3007 200.207 92.8387 199.071L91.0008 194.55C88.0842 195.448 85.1011 195.97 82.0515 196.116C79.0019 196.262 76.2024 195.961 73.6528 195.212C72.8298 195.029 72.1843 194.716 71.7163 194.273C71.2483 193.83 70.8536 193.213 70.5322 192.422C70.1104 191.385 70.0352 190.35 70.3067 189.319C70.6276 188.267 71.1833 187.581 71.9738 187.259C72.4678 187.058 72.9526 186.976 73.4282 187.013C73.9332 186.981 74.6118 187.021 75.4642 187.135C78.3395 187.694 81.0047 187.877 83.4597 187.685C85.9642 187.472 88.4269 186.874 90.8478 185.89C94.158 184.544 96.4413 182.867 97.6977 180.859C99.0034 178.832 99.1642 176.607 98.1799 174.186C97.5974 172.754 96.6313 171.794 95.2816 171.306C93.9319 170.818 92.4155 170.629 90.7325 170.737C89.0293 170.797 86.7032 171.023 83.754 171.416C79.6669 171.984 76.2715 172.27 73.5678 172.275C70.844 172.231 68.2404 171.563 65.7571 170.27C63.2738 168.976 61.3492 166.65 59.9833 163.29C58.3562 159.288 58.403 155.297 60.1236 151.316C61.8442 147.334 64.886 144.054 69.2489 141.474L67.3507 136.805C66.8887 135.669 66.8629 134.614 67.2734 133.641C67.6637 132.619 68.4271 131.877 69.5634 131.415C70.6998 130.953 71.7644 130.952 72.7574 131.412C73.7303 131.822 74.4478 132.595 74.9098 133.732L76.7779 138.327C82.029 136.94 87.0605 136.996 91.8724 138.494C93.4197 138.901 94.4846 139.821 95.0672 141.254C95.489 142.291 95.5395 143.336 95.2186 144.388C94.9471 145.419 94.3914 146.106 93.5515 146.447C93.1068 146.628 92.6321 146.734 92.1271 146.767C91.6716 146.78 91.0076 146.704 90.1352 146.541C87.527 145.931 85.1683 145.653 83.0591 145.704C80.9791 145.686 78.704 146.179 76.2337 147.184C73.1705 148.429 71.0062 150.115 69.7406 152.242C68.4549 154.319 68.2942 156.543 69.2583 158.915C69.9212 160.545 70.9823 161.668 72.4417 162.284C73.881 162.85 75.5016 163.084 77.3035 162.984C79.1055 162.885 81.5057 162.629 84.5043 162.216C88.4725 161.639 91.7837 161.357 94.4381 161.372C97.0924 161.387 99.6018 162.036 101.966 163.32C104.36 164.535 106.22 166.773 107.545 170.033Z" fill="#E4CC8B"/>
<path d="M107.463 181.725L107.187 181.606L107.186 181.609L107.463 181.725ZM98.4996 191.328L98.3469 191.07L98.1243 191.202L98.2217 191.441L98.4996 191.328ZM100.475 199.161L100.199 199.044L100.195 199.054L100.475 199.161ZM94.9911 201.391L95.1172 201.118L95.1077 201.114L94.9911 201.391ZM91.0008 194.55L91.2787 194.437L91.1752 194.182L90.9125 194.263L91.0008 194.55ZM82.0515 196.116L82.0659 196.415L82.0515 196.116ZM73.6528 195.212L73.7373 194.925L73.7278 194.922L73.7181 194.92L73.6528 195.212ZM71.7163 194.273L71.51 194.49L71.7163 194.273ZM70.3067 189.319L70.0195 189.231L70.0166 189.242L70.3067 189.319ZM73.4282 187.013L73.405 187.312L73.4263 187.314L73.4475 187.313L73.4282 187.013ZM75.4642 187.135L75.5214 186.841L75.5127 186.839L75.504 186.838L75.4642 187.135ZM83.4597 187.685L83.4831 187.984L83.4851 187.983L83.4597 187.685ZM97.6977 180.859L97.4454 180.697L97.4433 180.7L97.6977 180.859ZM95.2816 171.306L95.1796 171.588L95.2816 171.306ZM90.7325 170.737L90.7429 171.037L90.7518 171.037L90.7325 170.737ZM83.754 171.416L83.7144 171.118L83.7128 171.119L83.754 171.416ZM73.5678 172.275L73.5629 172.575L73.5684 172.575L73.5678 172.275ZM65.7571 170.27L65.6185 170.536L65.7571 170.27ZM60.1236 151.316L59.8482 151.197L60.1236 151.316ZM69.2489 141.474L69.4016 141.732L69.6242 141.601L69.5268 141.361L69.2489 141.474ZM67.2734 133.641L67.5499 133.758L67.5536 133.748L67.2734 133.641ZM72.7574 131.412L72.6313 131.684L72.6408 131.688L72.7574 131.412ZM76.7779 138.327L76.5 138.44L76.5994 138.684L76.8545 138.617L76.7779 138.327ZM91.8724 138.494L91.7831 138.781L91.796 138.784L91.8724 138.494ZM95.2186 144.388L94.9314 144.3L94.9284 144.311L95.2186 144.388ZM92.1271 146.767L92.1354 147.067L92.1464 147.066L92.1271 146.767ZM90.1352 146.541L90.0669 146.833L90.0799 146.835L90.1352 146.541ZM83.0591 145.704L83.0565 146.004L83.0664 146.004L83.0591 145.704ZM69.7406 152.242L69.9957 152.4L69.9984 152.395L69.7406 152.242ZM72.4417 162.284L72.325 162.56L72.3318 162.563L72.4417 162.284ZM77.3035 162.984L77.32 163.284L77.3035 162.984ZM84.5043 162.216L84.5452 162.513L84.5474 162.513L84.5043 162.216ZM94.4381 161.372L94.4397 161.072L94.4381 161.372ZM101.966 163.32L101.823 163.584L101.83 163.588L101.966 163.32ZM107.267 170.146C108.845 174.026 108.817 177.84 107.188 181.606L107.738 181.844C109.433 177.927 109.46 173.946 107.823 169.92L107.267 170.146ZM107.186 181.609C105.604 185.359 102.667 188.516 98.3469 191.07L98.6523 191.587C103.058 188.981 106.097 185.735 107.739 181.842L107.186 181.609ZM98.2217 191.441L100.12 196.11L100.676 195.884L98.7775 191.215L98.2217 191.441ZM100.12 196.11C100.557 197.186 100.573 198.157 100.199 199.044L100.752 199.278C101.198 198.22 101.162 197.081 100.676 195.884L100.12 196.11ZM100.195 199.054C99.8379 199.989 99.1417 200.675 98.0721 201.11L98.2981 201.665C99.5011 201.176 100.332 200.378 100.755 199.268L100.195 199.054ZM98.0721 201.11C97.0025 201.545 96.0252 201.539 95.1172 201.119L94.865 201.663C95.943 202.162 97.095 202.155 98.2981 201.665L98.0721 201.11ZM95.1077 201.114C94.22 200.74 93.5539 200.033 93.1166 198.958L92.5608 199.184C93.0475 200.381 93.8164 201.221 94.8745 201.667L95.1077 201.114ZM93.1166 198.958L91.2787 194.437L90.7228 194.663L92.5608 199.184L93.1166 198.958ZM90.9125 194.263C88.0199 195.154 85.0617 195.671 82.0372 195.816L82.0659 196.415C85.1405 196.268 88.1484 195.742 91.089 194.837L90.9125 194.263ZM82.0372 195.816C79.0161 195.961 76.2504 195.662 73.7373 194.925L73.5684 195.5C76.1543 196.259 78.9878 196.563 82.0659 196.415L82.0372 195.816ZM73.7181 194.92C72.932 194.744 72.3408 194.451 71.9225 194.055L71.51 194.49C72.0277 194.981 72.7275 195.314 73.5876 195.505L73.7181 194.92ZM71.9225 194.055C71.494 193.649 71.1204 193.072 70.8101 192.309L70.2543 192.535C70.5868 193.353 71.0026 194.01 71.51 194.49L71.9225 194.055ZM70.8101 192.309C70.4114 191.329 70.3427 190.361 70.5968 189.395L70.0166 189.242C69.7277 190.34 69.8093 191.441 70.2543 192.535L70.8101 192.309ZM70.5936 189.406C70.8964 188.414 71.403 187.815 72.0867 187.537L71.8608 186.981C70.9635 187.346 70.3588 188.12 70.0197 189.231L70.5936 189.406ZM72.0867 187.537C72.5428 187.352 72.9811 187.279 73.405 187.312L73.4515 186.714C72.9242 186.673 72.3928 186.765 71.8608 186.981L72.0867 187.537ZM73.4475 187.313C73.9238 187.282 74.5801 187.32 75.4244 187.433L75.504 186.838C74.6435 186.723 73.9425 186.68 73.4089 186.714L73.4475 187.313ZM75.407 187.43C78.304 187.992 80.9966 188.178 83.4831 187.984L83.4363 187.385C81.0127 187.575 78.375 187.395 75.5214 186.841L75.407 187.43ZM83.4851 187.983C86.0209 187.769 88.513 187.163 90.9608 186.168L90.7348 185.612C88.3408 186.585 85.9076 187.176 83.4344 187.386L83.4851 187.983ZM90.9608 186.168C94.3014 184.81 96.649 183.101 97.952 181.019L97.4433 180.7C96.2336 182.634 94.0147 184.278 90.7348 185.612L90.9608 186.168ZM97.9499 181.022C99.3135 178.904 99.4753 176.576 98.4578 174.074L97.902 174.299C98.8531 176.639 98.6933 178.759 97.4454 180.697L97.9499 181.022ZM98.4578 174.074C97.846 172.569 96.8199 171.543 95.3835 171.024L95.1796 171.588C96.4426 172.044 97.3487 172.939 97.902 174.299L98.4578 174.074ZM95.3835 171.024C93.9888 170.52 92.4303 170.327 90.7132 170.438L90.7518 171.037C92.4008 170.93 93.875 171.117 95.1796 171.588L95.3835 171.024ZM90.7221 170.438C89.0045 170.497 86.6673 170.725 83.7144 171.118L83.7937 171.713C86.7391 171.321 89.0541 171.096 90.7429 171.037L90.7221 170.438ZM83.7128 171.119C79.6329 171.685 76.2522 171.97 73.5672 171.975L73.5684 172.575C76.2908 172.57 79.701 172.282 83.7953 171.713L83.7128 171.119ZM73.5726 171.976C70.8967 171.932 68.3388 171.276 65.8957 170.003L65.6185 170.536C68.142 171.85 70.7912 172.531 73.5629 172.575L73.5726 171.976ZM65.8957 170.003C63.4922 168.752 61.6084 166.491 60.2612 163.177L59.7054 163.403C61.0901 166.809 63.0554 169.201 65.6185 170.536L65.8957 170.003ZM60.2612 163.177C58.6646 159.25 58.7102 155.342 60.399 151.435L59.8482 151.197C58.0959 155.251 58.0479 159.326 59.7054 163.403L60.2612 163.177ZM60.399 151.435C62.0904 147.521 65.0837 144.285 69.4016 141.732L69.0962 141.216C64.6882 143.822 61.598 147.148 59.8482 151.197L60.399 151.435ZM69.5268 141.361L67.6286 136.692L67.0728 136.918L68.971 141.587L69.5268 141.361ZM67.6286 136.692C67.1913 135.617 67.1753 134.646 67.5498 133.758L66.997 133.525C66.5506 134.583 66.586 135.721 67.0728 136.918L67.6286 136.692ZM67.5536 133.748C67.9106 132.813 68.6068 132.128 69.6764 131.693L69.4505 131.137C68.2474 131.626 67.4169 132.424 66.9931 133.534L67.5536 133.748ZM69.6764 131.693C70.746 131.258 71.7234 131.263 72.6314 131.684L72.8835 131.139C71.8055 130.64 70.6535 130.648 69.4505 131.137L69.6764 131.693ZM72.6408 131.688C73.5285 132.063 74.1946 132.769 74.6319 133.845L75.1877 133.619C74.701 132.422 73.9322 131.582 72.8741 131.135L72.6408 131.688ZM74.6319 133.845L76.5 138.44L77.0558 138.214L75.1877 133.619L74.6319 133.845ZM76.8545 138.617C82.0555 137.243 87.0294 137.3 91.7832 138.78L91.9616 138.207C87.0917 136.691 82.0025 136.637 76.7013 138.036L76.8545 138.617ZM91.796 138.784C93.2557 139.168 94.2437 140.025 94.7892 141.367L95.3451 141.141C94.7256 139.617 93.5837 138.634 91.9488 138.204L91.796 138.784ZM94.7892 141.367C95.1856 142.342 95.232 143.316 94.9316 144.3L95.5055 144.475C95.8469 143.356 95.7923 142.241 95.3451 141.141L94.7892 141.367ZM94.9284 144.311C94.6762 145.27 94.1748 145.87 93.4385 146.169L93.6645 146.725C94.608 146.341 95.218 145.568 95.5087 144.464L94.9284 144.311ZM93.4385 146.169C93.0253 146.337 92.5823 146.437 92.1078 146.468L92.1464 147.066C92.6818 147.032 93.1884 146.919 93.6645 146.725L93.4385 146.169ZM92.1189 146.467C91.6963 146.479 91.0577 146.408 90.1904 146.246L90.0799 146.835C90.9576 147 91.647 147.08 92.1354 147.067L92.1189 146.467ZM90.2034 146.248C87.5768 145.635 85.1921 145.352 83.0517 145.404L83.0664 146.004C85.1445 145.953 87.4772 146.228 90.0669 146.833L90.2034 146.248ZM83.0616 145.404C80.9327 145.386 78.6178 145.891 76.1207 146.906L76.3467 147.462C78.7902 146.468 81.0256 145.987 83.0565 146.004L83.0616 145.404ZM76.1207 146.906C73.0172 148.168 70.7915 149.889 69.4828 152.088L69.9984 152.395C71.2209 150.341 73.3239 148.691 76.3467 147.462L76.1207 146.906ZM69.4855 152.084C68.1466 154.247 67.9822 156.572 68.9804 159.028L69.5363 158.802C68.6061 156.514 68.7632 154.391 69.9957 152.4L69.4855 152.084ZM68.9804 159.028C69.6696 160.723 70.7839 161.91 72.3251 162.56L72.5583 162.007C71.1807 161.426 70.1728 160.367 69.5363 158.802L68.9804 159.028ZM72.3318 162.563C73.8174 163.148 75.4821 163.385 77.32 163.284L77.287 162.685C75.521 162.782 73.9445 162.553 72.5515 162.005L72.3318 162.563ZM77.32 163.284C79.1338 163.184 81.5432 162.926 84.5452 162.513L84.4633 161.918C81.4682 162.331 79.0772 162.586 77.287 162.685L77.32 163.284ZM84.5474 162.513C88.5075 161.937 91.8026 161.658 94.4364 161.672L94.4397 161.072C91.7649 161.057 88.4375 161.341 84.4611 161.919L84.5474 162.513ZM94.4364 161.672C97.0406 161.687 99.5014 162.323 101.823 163.584L102.109 163.057C99.7021 161.749 97.1442 161.087 94.4397 161.072L94.4364 161.672ZM101.83 163.588C104.142 164.761 105.96 166.931 107.267 170.146L107.823 169.92C106.479 166.614 104.578 164.309 102.102 163.053L101.83 163.588Z" fill="url(#paint12_linear_5_10965)"/>
</g>
<defs>
<filter id="filter0_df_5_10965" x="10.9381" y="466.872" width="83.4569" height="83.9569" filterUnits="userSpaceOnUse" color-interpolation-filters="sRGB">
<feFlood flood-opacity="0" result="BackgroundImageFix"/>
<feColorMatrix in="SourceAlpha" type="matrix" values="0 0 0 0 0 0 0 0 0 0 0 0 0 0 0 0 0 0 127 0" result="hardAlpha"/>
<feOffset dy="4"/>
<feGaussianBlur stdDeviation="2"/>
<feComposite in2="hardAlpha" operator="out"/>
<feColorMatrix type="matrix" values="0 0 0 0 0 0 0 0 0 0 0 0 0 0 0 0 0 0 0.25 0"/>
<feBlend mode="normal" in2="BackgroundImageFix" result="effect1_dropShadow_5_10965"/>
<feBlend mode="normal" in="SourceGraphic" in2="effect1_dropShadow_5_10965" result="shape"/>
<feGaussianBlur stdDeviation="0.25" result="effect2_foregroundBlur_5_10965"/>
</filter>
<filter id="filter1_d_5_10965" x="27.4094" y="479.467" width="48.3669" height="52.5465" filterUnits="userSpaceOnUse" color-interpolation-filters="sRGB">
<feFlood flood-opacity="0" result="BackgroundImageFix"/>
<feColorMatrix in="SourceAlpha" type="matrix" values="0 0 0 0 0 0 0 0 0 0 0 0 0 0 0 0 0 0 127 0" result="hardAlpha"/>
<feOffset dx="1"/>
<feGaussianBlur stdDeviation="1"/>
<feComposite in2="hardAlpha" operator="out"/>
<feColorMatrix type="matrix" values="0 0 0 0 0 0 0 0 0 0 0 0 0 0 0 0 0 0 0.35 0"/>
<feBlend mode="normal" in2="BackgroundImageFix" result="effect1_dropShadow_5_10965"/>
<feBlend mode="normal" in="SourceGraphic" in2="effect1_dropShadow_5_10965" result="shape"/>
</filter>
<filter id="filter2_dif_5_10965" x="147.393" y="8.78009" width="89.0424" height="88.1588" filterUnits="userSpaceOnUse" color-interpolation-filters="sRGB">
<feFlood flood-opacity="0" result="BackgroundImageFix"/>
<feColorMatrix in="SourceAlpha" type="matrix" values="0 0 0 0 0 0 0 0 0 0 0 0 0 0 0 0 0 0 127 0" result="hardAlpha"/>
<feOffset dy="4"/>
<feGaussianBlur stdDeviation="2"/>
<feComposite in2="hardAlpha" operator="out"/>
<feColorMatrix type="matrix" values="0 0 0 0 0 0 0 0 0 0 0 0 0 0 0 0 0 0 0.25 0"/>
<feBlend mode="normal" in2="BackgroundImageFix" result="effect1_dropShadow_5_10965"/>
<feBlend mode="normal" in="SourceGraphic" in2="effect1_dropShadow_5_10965" result="shape"/>
<feColorMatrix in="SourceAlpha" type="matrix" values="0 0 0 0 0 0 0 0 0 0 0 0 0 0 0 0 0 0 127 0" result="hardAlpha"/>
<feOffset dx="-3" dy="-3.5"/>
<feGaussianBlur stdDeviation="2"/>
<feComposite in2="hardAlpha" operator="arithmetic" k2="-1" k3="1"/>
<feColorMatrix type="matrix" values="0 0 0 0 0.5375 0 0 0 0 0.453871 0 0 0 0 0.228438 0 0 0 1 0"/>
<feBlend mode="normal" in2="shape" result="effect2_innerShadow_5_10965"/>
<feGaussianBlur stdDeviation="0.2" result="effect3_foregroundBlur_5_10965"/>
</filter>
<filter id="filter3_f_5_10965" x="153.954" y="41.4012" width="475.662" height="318.251" filterUnits="userSpaceOnUse" color-interpolation-filters="sRGB">
<feFlood flood-opacity="0" result="BackgroundImageFix"/>
<feBlend mode="normal" in="SourceGraphic" in2="BackgroundImageFix" result="shape"/>
<feGaussianBlur stdDeviation="0.25" result="effect1_foregroundBlur_5_10965"/>
</filter>
<filter id="filter4_d_5_10965" x="191.278" y="180.647" width="247.593" height="99.0108" filterUnits="userSpaceOnUse" color-interpolation-filters="sRGB">
<feFlood flood-opacity="0" result="BackgroundImageFix"/>
<feColorMatrix in="SourceAlpha" type="matrix" values="0 0 0 0 0 0 0 0 0 0 0 0 0 0 0 0 0 0 127 0" result="hardAlpha"/>
<feOffset dy="4"/>
<feGaussianBlur stdDeviation="4"/>
<feComposite in2="hardAlpha" operator="out"/>
<feColorMatrix type="matrix" values="0 0 0 0 0.717647 0 0 0 0 0.631373 0 0 0 0 0.388235 0 0 0 1 0"/>
<feBlend mode="normal" in2="BackgroundImageFix" result="effect1_dropShadow_5_10965"/>
<feBlend mode="normal" in="SourceGraphic" in2="effect1_dropShadow_5_10965" result="shape"/>
</filter>
<filter id="filter5_df_5_10965" x="123.658" y="175.943" width="477.556" height="308.942" filterUnits="userSpaceOnUse" color-interpolation-filters="sRGB">
<feFlood flood-opacity="0" result="BackgroundImageFix"/>
<feColorMatrix in="SourceAlpha" type="matrix" values="0 0 0 0 0 0 0 0 0 0 0 0 0 0 0 0 0 0 127 0" result="hardAlpha"/>
<feMorphology radius="2" operator="dilate" in="SourceAlpha" result="effect1_dropShadow_5_10965"/>
<feOffset dx="2" dy="1.5"/>
<feGaussianBlur stdDeviation="1"/>
<feComposite in2="hardAlpha" operator="out"/>
<feColorMatrix type="matrix" values="0 0 0 0 0 0 0 0 0 0 0 0 0 0 0 0 0 0 0.45 0"/>
<feBlend mode="normal" in2="BackgroundImageFix" result="effect1_dropShadow_5_10965"/>
<feBlend mode="normal" in="SourceGraphic" in2="effect1_dropShadow_5_10965" result="shape"/>
<feGaussianBlur stdDeviation="0.25" result="effect2_foregroundBlur_5_10965"/>
</filter>
<filter id="filter6_d_5_10965" x="179.457" y="311.149" width="248.913" height="91.8997" filterUnits="userSpaceOnUse" color-interpolation-filters="sRGB">
<feFlood flood-opacity="0" result="BackgroundImageFix"/>
<feColorMatrix in="SourceAlpha" type="matrix" values="0 0 0 0 0 0 0 0 0 0 0 0 0 0 0 0 0 0 127 0" result="hardAlpha"/>
<feOffset dy="4"/>
<feGaussianBlur stdDeviation="4"/>
<feComposite in2="hardAlpha" operator="out"/>
<feColorMatrix type="matrix" values="0 0 0 0 0.815686 0 0 0 0 0.419608 0 0 0 0 0.556863 0 0 0 1 0"/>
<feBlend mode="normal" in2="BackgroundImageFix" result="effect1_dropShadow_5_10965"/>
<feBlend mode="normal" in="SourceGraphic" in2="effect1_dropShadow_5_10965" result="shape"/>
</filter>
<filter id="filter7_df_5_10965" x="126.649" y="249.165" width="488.062" height="395.396" filterUnits="userSpaceOnUse" color-interpolation-filters="sRGB">
<feFlood flood-opacity="0" result="BackgroundImageFix"/>
<feColorMatrix in="SourceAlpha" type="matrix" values="0 0 0 0 0 0 0 0 0 0 0 0 0 0 0 0 0 0 127 0" result="hardAlpha"/>
<feOffset dx="2.5" dy="-1"/>
<feGaussianBlur stdDeviation="2"/>
<feComposite in2="hardAlpha" operator="out"/>
<feColorMatrix type="matrix" values="0 0 0 0 0 0 0 0 0 0 0 0 0 0 0 0 0 0 0.4 0"/>
<feBlend mode="normal" in2="BackgroundImageFix" result="effect1_dropShadow_5_10965"/>
<feBlend mode="normal" in="SourceGraphic" in2="effect1_dropShadow_5_10965" result="shape"/>
<feGaussianBlur stdDeviation="0.25" result="effect2_foregroundBlur_5_10965"/>
</filter>
<filter id="filter8_d_5_10965" x="214.7" y="430.663" width="234.056" height="140.43" filterUnits="userSpaceOnUse" color-interpolation-filters="sRGB">
<feFlood flood-opacity="0" result="BackgroundImageFix"/>
<feColorMatrix in="SourceAlpha" type="matrix" values="0 0 0 0 0 0 0 0 0 0 0 0 0 0 0 0 0 0 127 0" result="hardAlpha"/>
<feOffset dy="4"/>
<feGaussianBlur stdDeviation="4"/>
<feComposite in2="hardAlpha" operator="out"/>
<feColorMatrix type="matrix" values="0 0 0 0 0.270588 0 0 0 0 0.509804 0 0 0 0 0.52549 0 0 0 1 0"/>
<feBlend mode="normal" in2="BackgroundImageFix" result="effect1_dropShadow_5_10965"/>
<feBlend mode="normal" in="SourceGraphic" in2="effect1_dropShadow_5_10965" result="shape"/>
</filter>
<filter id="filter9_d_5_10965" x="460.48" y="367.451" width="110.551" height="101.151" filterUnits="userSpaceOnUse" color-interpolation-filters="sRGB">
<feFlood flood-opacity="0" result="BackgroundImageFix"/>
<feColorMatrix in="SourceAlpha" type="matrix" values="0 0 0 0 0 0 0 0 0 0 0 0 0 0 0 0 0 0 127 0" result="hardAlpha"/>
<feOffset dy="4"/>
<feGaussianBlur stdDeviation="4"/>
<feComposite in2="hardAlpha" operator="out"/>
<feColorMatrix type="matrix" values="0 0 0 0 0.270588 0 0 0 0 0.509804 0 0 0 0 0.52549 0 0 0 1 0"/>
<feBlend mode="normal" in2="BackgroundImageFix" result="effect1_dropShadow_5_10965"/>
<feBlend mode="normal" in="SourceGraphic" in2="effect1_dropShadow_5_10965" result="shape"/>
</filter>
<filter id="filter10_dif_5_10965" x="437.58" y="29.6846" width="113.499" height="114.999" filterUnits="userSpaceOnUse" color-interpolation-filters="sRGB">
<feFlood flood-opacity="0" result="BackgroundImageFix"/>
<feColorMatrix in="SourceAlpha" type="matrix" values="0 0 0 0 0 0 0 0 0 0 0 0 0 0 0 0 0 0 127 0" result="hardAlpha"/>
<feOffset dx="2.5" dy="4"/>
<feGaussianBlur stdDeviation="2"/>
<feComposite in2="hardAlpha" operator="out"/>
<feColorMatrix type="matrix" values="0 0 0 0 0 0 0 0 0 0 0 0 0 0 0 0 0 0 0.5 0"/>
<feBlend mode="normal" in2="BackgroundImageFix" result="effect1_dropShadow_5_10965"/>
<feBlend mode="normal" in="SourceGraphic" in2="effect1_dropShadow_5_10965" result="shape"/>
<feColorMatrix in="SourceAlpha" type="matrix" values="0 0 0 0 0 0 0 0 0 0 0 0 0 0 0 0 0 0 127 0" result="hardAlpha"/>
<feOffset dx="-6" dy="-4"/>
<feGaussianBlur stdDeviation="2"/>
<feComposite in2="hardAlpha" operator="arithmetic" k2="-1" k3="1"/>
<feColorMatrix type="matrix" values="0 0 0 0 0.7125 0 0 0 0 0.634579 0 0 0 0 0.424531 0 0 0 1 0"/>
<feBlend mode="normal" in2="shape" result="effect2_innerShadow_5_10965"/>
<feGaussianBlur stdDeviation="0.25" result="effect3_foregroundBlur_5_10965"/>
</filter>
<filter id="filter11_d_5_10965" x="458.044" y="49.191" width="73.1639" height="70.4367" filterUnits="userSpaceOnUse" color-interpolation-filters="sRGB">
<feFlood flood-opacity="0" result="BackgroundImageFix"/>
<feColorMatrix in="SourceAlpha" type="matrix" values="0 0 0 0 0 0 0 0 0 0 0 0 0 0 0 0 0 0 127 0" result="hardAlpha"/>
<feOffset dx="1"/>
<feGaussianBlur stdDeviation="1"/>
<feComposite in2="hardAlpha" operator="out"/>
<feColorMatrix type="matrix" values="0 0 0 0 0 0 0 0 0 0 0 0 0 0 0 0 0 0 0.5 0"/>
<feBlend mode="normal" in2="BackgroundImageFix" result="effect1_dropShadow_5_10965"/>
<feBlend mode="normal" in="SourceGraphic" in2="effect1_dropShadow_5_10965" result="shape"/>
</filter>
<filter id="filter12_dif_5_10965" x="83.0392" y="279.02" width="102.634" height="102.634" filterUnits="userSpaceOnUse" color-interpolation-filters="sRGB">
<feFlood flood-opacity="0" result="BackgroundImageFix"/>
<feColorMatrix in="SourceAlpha" type="matrix" values="0 0 0 0 0 0 0 0 0 0 0 0 0 0 0 0 0 0 127 0" result="hardAlpha"/>
<feOffset dx="3" dy="2"/>
<feGaussianBlur stdDeviation="2"/>
<feComposite in2="hardAlpha" operator="out"/>
<feColorMatrix type="matrix" values="0 0 0 0 0 0 0 0 0 0 0 0 0 0 0 0 0 0 0.25 0"/>
<feBlend mode="normal" in2="BackgroundImageFix" result="effect1_dropShadow_5_10965"/>
<feBlend mode="normal" in="SourceGraphic" in2="effect1_dropShadow_5_10965" result="shape"/>
<feColorMatrix in="SourceAlpha" type="matrix" values="0 0 0 0 0 0 0 0 0 0 0 0 0 0 0 0 0 0 127 0" result="hardAlpha"/>
<feOffset dx="-2" dy="-3"/>
<feGaussianBlur stdDeviation="2"/>
<feComposite in2="hardAlpha" operator="arithmetic" k2="-1" k3="1"/>
<feColorMatrix type="matrix" values="0 0 0 0 0.620833 0 0 0 0 0.248333 0 0 0 0 0.37638 0 0 0 1 0"/>
<feBlend mode="normal" in2="shape" result="effect2_innerShadow_5_10965"/>
<feGaussianBlur stdDeviation="0.15" result="effect3_foregroundBlur_5_10965"/>
</filter>
<filter id="filter13_dif_5_10965" x="163.002" y="565.479" width="124.856" height="124.356" filterUnits="userSpaceOnUse" color-interpolation-filters="sRGB">
<feFlood flood-opacity="0" result="BackgroundImageFix"/>
<feColorMatrix in="SourceAlpha" type="matrix" values="0 0 0 0 0 0 0 0 0 0 0 0 0 0 0 0 0 0 127 0" result="hardAlpha"/>
<feOffset dx="3" dy="2"/>
<feGaussianBlur stdDeviation="2"/>
<feComposite in2="hardAlpha" operator="out"/>
<feColorMatrix type="matrix" values="0 0 0 0 0 0 0 0 0 0 0 0 0 0 0 0 0 0 0.25 0"/>
<feBlend mode="normal" in2="BackgroundImageFix" result="effect1_dropShadow_5_10965"/>
<feBlend mode="normal" in="SourceGraphic" in2="effect1_dropShadow_5_10965" result="shape"/>
<feColorMatrix in="SourceAlpha" type="matrix" values="0 0 0 0 0 0 0 0 0 0 0 0 0 0 0 0 0 0 127 0" result="hardAlpha"/>
<feOffset dx="-3.5" dy="-4"/>
<feGaussianBlur stdDeviation="2.5"/>
<feComposite in2="hardAlpha" operator="arithmetic" k2="-1" k3="1"/>
<feColorMatrix type="matrix" values="0 0 0 0 0.215625 0 0 0 0 0.463194 0 0 0 0 0.479167 0 0 0 1 0"/>
<feBlend mode="normal" in2="shape" result="effect2_innerShadow_5_10965"/>
<feGaussianBlur stdDeviation="0.25" result="effect3_foregroundBlur_5_10965"/>
</filter>
<filter id="filter14_di_5_10965" x="357.323" y="129.206" width="102.634" height="101.634" filterUnits="userSpaceOnUse" color-interpolation-filters="sRGB">
<feFlood flood-opacity="0" result="BackgroundImageFix"/>
<feColorMatrix in="SourceAlpha" type="matrix" values="0 0 0 0 0 0 0 0 0 0 0 0 0 0 0 0 0 0 127 0" result="hardAlpha"/>
<feOffset dx="2" dy="1"/>
<feGaussianBlur stdDeviation="2"/>
<feComposite in2="hardAlpha" operator="out"/>
<feColorMatrix type="matrix" values="0 0 0 0 0 0 0 0 0 0 0 0 0 0 0 0 0 0 0.5 0"/>
<feBlend mode="normal" in2="BackgroundImageFix" result="effect1_dropShadow_5_10965"/>
<feBlend mode="normal" in="SourceGraphic" in2="effect1_dropShadow_5_10965" result="shape"/>
<feColorMatrix in="SourceAlpha" type="matrix" values="0 0 0 0 0 0 0 0 0 0 0 0 0 0 0 0 0 0 127 0" result="hardAlpha"/>
<feOffset dx="-3" dy="-2"/>
<feGaussianBlur stdDeviation="2.5"/>
<feComposite in2="hardAlpha" operator="arithmetic" k2="-1" k3="1"/>
<feColorMatrix type="matrix" values="0 0 0 0 0.733333 0 0 0 0 0.3025 0 0 0 0 0.451799 0 0 0 0.9 0"/>
<feBlend mode="normal" in2="shape" result="effect2_innerShadow_5_10965"/>
</filter>
<filter id="filter15_if_5_10965" x="45.1094" y="119.641" width="72.3476" height="90.4227" filterUnits="userSpaceOnUse" color-interpolation-filters="sRGB">
<feFlood flood-opacity="0" result="BackgroundImageFix"/>
<feBlend mode="normal" in="SourceGraphic" in2="BackgroundImageFix" result="shape"/>
<feColorMatrix in="SourceAlpha" type="matrix" values="0 0 0 0 0 0 0 0 0 0 0 0 0 0 0 0 0 0 127 0" result="hardAlpha"/>
<feOffset dx="-8" dy="-4"/>
<feGaussianBlur stdDeviation="2"/>
<feComposite in2="hardAlpha" operator="arithmetic" k2="-1" k3="1"/>
<feColorMatrix type="matrix" values="0 0 0 0 0.572549 0 0 0 0 0.486274 0 0 0 0 0.258824 0 0 0 0.7 0"/>
<feBlend mode="normal" in2="shape" result="effect1_innerShadow_5_10965"/>
<feGaussianBlur stdDeviation="0.15" result="effect2_foregroundBlur_5_10965"/>
</filter>
<linearGradient id="paint0_linear_5_10965" x1="25.2297" y1="474.92" x2="79.4175" y2="527.05" gradientUnits="userSpaceOnUse">
<stop offset="0.17126" stop-color="white" stop-opacity="0.61"/>
<stop offset="0.833333" stop-color="#549296"/>
</linearGradient>
<linearGradient id="paint1_linear_5_10965" x1="28.0337" y1="502.155" x2="73.2221" y2="514.384" gradientUnits="userSpaceOnUse">
<stop stop-color="white"/>
<stop offset="1" stop-color="#408A8E" stop-opacity="0"/>
</linearGradient>
<linearGradient id="paint2_linear_5_10965" x1="217.989" y1="20.6306" x2="172.517" y2="74.4907" gradientUnits="userSpaceOnUse">
<stop offset="0.352041" stop-color="white" stop-opacity="0.75"/>
<stop offset="1" stop-color="#BAA365" stop-opacity="0"/>
</linearGradient>
<linearGradient id="paint3_linear_5_10965" x1="253.99" y1="76.8537" x2="627.35" y2="243.049" gradientUnits="userSpaceOnUse">
<stop stop-color="#FFF2D0"/>
<stop offset="1" stop-color="#949494" stop-opacity="0"/>
</linearGradient>
<linearGradient id="paint4_linear_5_10965" x1="242.849" y1="281.639" x2="585.908" y2="800.585" gradientUnits="userSpaceOnUse">
<stop stop-color="#DC89A6"/>
<stop offset="0.577559" stop-color="white" stop-opacity="0"/>
</linearGradient>
<linearGradient id="paint5_linear_5_10965" x1="253.104" y1="293.153" x2="313.921" y2="390.398" gradientUnits="userSpaceOnUse">
<stop stop-color="white"/>
<stop offset="0.140625" stop-opacity="0"/>
</linearGradient>
<linearGradient id="paint6_linear_5_10965" x1="380.688" y1="635.695" x2="352.202" y2="466.926" gradientUnits="userSpaceOnUse">
<stop offset="0.154529" stop-color="#437C80"/>
<stop offset="1" stop-color="white" stop-opacity="0"/>
</linearGradient>
<linearGradient id="paint7_linear_5_10965" x1="253.803" y1="422.59" x2="195.284" y2="624.893" gradientUnits="userSpaceOnUse">
<stop offset="0.0344828" stop-color="white"/>
<stop offset="1" stop-opacity="0"/>
</linearGradient>
<linearGradient id="paint8_linear_5_10965" x1="460.215" y1="94.8649" x2="536.799" y2="70.7348" gradientUnits="userSpaceOnUse">
<stop offset="0.540571" stop-color="white" stop-opacity="0.75"/>
<stop offset="0.916392" stop-color="#BAA365"/>
</linearGradient>
<linearGradient id="paint9_linear_5_10965" x1="471.748" y1="79.7705" x2="494.22" y2="117.224" gradientUnits="userSpaceOnUse">
<stop stop-color="white"/>
<stop offset="1" stop-color="#BAA365"/>
</linearGradient>
<linearGradient id="paint10_linear_5_10965" x1="100.957" y1="297.938" x2="161.819" y2="357.864" gradientUnits="userSpaceOnUse">
<stop offset="0.241559" stop-color="white" stop-opacity="0.7"/>
<stop offset="0.498725" stop-color="#D06B8E" stop-opacity="0.7"/>
</linearGradient>
<linearGradient id="paint11_linear_5_10965" x1="197.431" y1="594.706" x2="238.974" y2="669.57" gradientUnits="userSpaceOnUse">
<stop offset="0.34874" stop-color="white" stop-opacity="0.8"/>
<stop offset="0.957304" stop-color="#549296" stop-opacity="0"/>
</linearGradient>
<linearGradient id="paint12_linear_5_10965" x1="50.7782" y1="152.196" x2="116.437" y2="174.178" gradientUnits="userSpaceOnUse">
<stop offset="0.0825397" stop-color="white"/>
<stop offset="1" stop-color="#BAA365"/>
</linearGradient>
</defs>
</svg>
