<svg width="59" height="63" viewBox="0 0 59 63" fill="none" xmlns="http://www.w3.org/2000/svg">
<rect y="3" width="59" height="60" rx="10" fill="#3872FF"/>
<path d="M33.1059 50.1317C33.0265 50.7758 32.8204 51.2911 32.4878 51.6777C32.0377 52.2007 31.4498 52.4468 30.7243 52.4161C30.0214 52.4049 29.3858 52.1547 28.8173 51.6655C28.4535 51.3524 28.1695 50.9694 27.9655 50.5167C27.8037 50.0609 27.7559 49.5645 27.822 49.0278L29.2151 38.2339C29.3866 37.1149 29.338 36.1825 29.0694 35.4368C28.8236 34.7107 28.2913 33.9954 27.4728 33.2909L24.1302 30.4142L17.5549 38.0544C16.9678 38.7366 16.3049 39.1159 15.5661 39.1926C14.8469 39.2464 14.1575 38.9896 13.4981 38.4221C12.8387 37.8546 12.4707 37.2015 12.3941 36.4626C12.3597 35.7207 12.6361 35.0086 13.2232 34.3265L30.3952 14.3733C30.9627 13.7139 31.5849 13.3588 32.2619 13.3081C32.9615 13.277 33.6411 13.5452 34.3005 14.1127L42.8275 21.4511C45.5561 23.7994 47.097 26.1942 47.45 28.6354C47.8454 31.0734 47.0548 33.4407 45.0783 35.7373C43.4736 37.6019 41.6184 38.6768 39.5125 38.9622C37.4489 39.2444 35.3039 38.7244 33.0776 37.4021C33.6001 38.1288 33.9353 38.912 34.0833 39.7518C34.2313 40.5917 34.2309 41.5809 34.0822 42.7195L33.1059 50.1317ZM32.7322 31.9396C34.3922 33.3682 35.8729 34.1082 37.1743 34.1596C38.4954 34.1883 39.7136 33.5545 40.8291 32.2584C41.9641 30.9396 42.3995 29.6519 42.1351 28.3953C41.8904 27.116 40.9381 25.7621 39.2781 24.3336L33.548 19.4021L27.0021 27.0082L32.7322 31.9396Z" fill="white"/>
</svg>
