<svg width="375" height="156" viewBox="0 0 375 156" fill="none" xmlns="http://www.w3.org/2000/svg">
<path fill-rule="evenodd" clip-rule="evenodd" d="M0 52.6979L16 42.0639C31 29.9107 63 7.12351 94 1.04692C125 -3.51053 156 7.12351 188 26.8724C219 46.6214 250 75.4852 281 87.6383C313 98.2724 344 93.7149 359 90.6766L375 87.6383V156H359C344 156 313 156 281 156C250 156 219 156 188 156C156 156 125 156 94 156C63 156 31 156 16 156H0V52.6979Z" fill="white"/>
<path d="M20.76 109C20.3733 109 20.0667 108.893 19.84 108.68C19.6267 108.467 19.52 108.167 19.52 107.78V96.12C19.52 95.7333 19.6267 95.4333 19.84 95.22C20.0667 95.0067 20.3733 94.9 20.76 94.9H24.72C27.0267 94.9 28.8133 95.52 30.08 96.76C31.36 97.9867 32 99.7133 32 101.94C32 104.18 31.36 105.92 30.08 107.16C28.8133 108.387 27.0267 109 24.72 109H20.76ZM24.56 106.9C27.8 106.9 29.42 105.247 29.42 101.94C29.42 98.6467 27.8 97 24.56 97H22.1V106.9H24.56ZM42.1181 106.32C42.3448 106.32 42.5248 106.407 42.6581 106.58C42.8048 106.753 42.8781 106.987 42.8781 107.28C42.8781 107.693 42.6315 108.04 42.1381 108.32C41.6848 108.573 41.1715 108.78 40.5981 108.94C40.0248 109.087 39.4781 109.16 38.9581 109.16C37.3848 109.16 36.1381 108.707 35.2181 107.8C34.2981 106.893 33.8381 105.653 33.8381 104.08C33.8381 103.08 34.0381 102.193 34.4381 101.42C34.8381 100.647 35.3981 100.047 36.1181 99.62C36.8515 99.1933 37.6781 98.98 38.5981 98.98C39.4781 98.98 40.2448 99.1733 40.8981 99.56C41.5515 99.9467 42.0581 100.493 42.4181 101.2C42.7781 101.907 42.9581 102.74 42.9581 103.7C42.9581 104.273 42.7048 104.56 42.1981 104.56H36.2981C36.3781 105.48 36.6381 106.16 37.0781 106.6C37.5181 107.027 38.1581 107.24 38.9981 107.24C39.4248 107.24 39.7981 107.187 40.1181 107.08C40.4515 106.973 40.8248 106.827 41.2381 106.64C41.6381 106.427 41.9315 106.32 42.1181 106.32ZM38.6581 100.74C37.9781 100.74 37.4315 100.953 37.0181 101.38C36.6181 101.807 36.3781 102.42 36.2981 103.22H40.8181C40.7915 102.407 40.5915 101.793 40.2181 101.38C39.8448 100.953 39.3248 100.74 38.6581 100.74ZM51.6669 99.74C51.7735 99.5 51.9135 99.32 52.0869 99.2C52.2735 99.08 52.4735 99.02 52.6869 99.02C52.9935 99.02 53.2669 99.1267 53.5069 99.34C53.7602 99.54 53.8869 99.7933 53.8869 100.1C53.8869 100.26 53.8469 100.42 53.7669 100.58L50.0669 108.32C49.9469 108.573 49.7735 108.767 49.5469 108.9C49.3335 109.033 49.0935 109.1 48.8269 109.1C48.5735 109.1 48.3269 109.033 48.0869 108.9C47.8602 108.767 47.6869 108.573 47.5669 108.32L43.8469 100.58C43.7802 100.447 43.7469 100.293 43.7469 100.12C43.7469 99.8133 43.8735 99.5533 44.1269 99.34C44.3935 99.1267 44.6935 99.02 45.0269 99.02C45.5069 99.02 45.8602 99.2533 46.0869 99.72L48.8869 105.9L51.6669 99.74ZM62.958 106.32C63.1846 106.32 63.3646 106.407 63.498 106.58C63.6446 106.753 63.718 106.987 63.718 107.28C63.718 107.693 63.4713 108.04 62.978 108.32C62.5246 108.573 62.0113 108.78 61.438 108.94C60.8646 109.087 60.318 109.16 59.798 109.16C58.2246 109.16 56.978 108.707 56.058 107.8C55.138 106.893 54.678 105.653 54.678 104.08C54.678 103.08 54.878 102.193 55.278 101.42C55.678 100.647 56.238 100.047 56.958 99.62C57.6913 99.1933 58.518 98.98 59.438 98.98C60.318 98.98 61.0846 99.1733 61.738 99.56C62.3913 99.9467 62.898 100.493 63.258 101.2C63.618 101.907 63.798 102.74 63.798 103.7C63.798 104.273 63.5446 104.56 63.038 104.56H57.138C57.218 105.48 57.478 106.16 57.918 106.6C58.358 107.027 58.998 107.24 59.838 107.24C60.2646 107.24 60.638 107.187 60.958 107.08C61.2913 106.973 61.6646 106.827 62.078 106.64C62.478 106.427 62.7713 106.32 62.958 106.32ZM59.498 100.74C58.818 100.74 58.2713 100.953 57.858 101.38C57.458 101.807 57.218 102.42 57.138 103.22H61.658C61.6313 102.407 61.4313 101.793 61.058 101.38C60.6846 100.953 60.1646 100.74 59.498 100.74ZM67.083 109.12C66.723 109.12 66.423 109.02 66.183 108.82C65.9563 108.607 65.843 108.307 65.843 107.92V95.98C65.843 95.5933 65.9563 95.3 66.183 95.1C66.423 94.9 66.723 94.8 67.083 94.8C67.443 94.8 67.743 94.9 67.983 95.1C68.223 95.3 68.343 95.5933 68.343 95.98V107.92C68.343 108.307 68.223 108.607 67.983 108.82C67.743 109.02 67.443 109.12 67.083 109.12ZM75.3811 109.16C74.3811 109.16 73.5011 108.953 72.7411 108.54C71.9944 108.127 71.4144 107.533 71.0011 106.76C70.5878 105.987 70.3811 105.087 70.3811 104.06C70.3811 103.033 70.5878 102.14 71.0011 101.38C71.4144 100.607 71.9944 100.013 72.7411 99.6C73.5011 99.1867 74.3811 98.98 75.3811 98.98C76.3811 98.98 77.2544 99.1867 78.0011 99.6C78.7611 100.013 79.3411 100.607 79.7411 101.38C80.1544 102.14 80.3611 103.033 80.3611 104.06C80.3611 105.087 80.1544 105.987 79.7411 106.76C79.3411 107.533 78.7611 108.127 78.0011 108.54C77.2544 108.953 76.3811 109.16 75.3811 109.16ZM75.3611 107.22C76.1744 107.22 76.7944 106.953 77.2211 106.42C77.6478 105.887 77.8611 105.1 77.8611 104.06C77.8611 103.033 77.6478 102.253 77.2211 101.72C76.7944 101.173 76.1811 100.9 75.3811 100.9C74.5811 100.9 73.9611 101.173 73.5211 101.72C73.0944 102.253 72.8811 103.033 72.8811 104.06C72.8811 105.1 73.0944 105.887 73.5211 106.42C73.9478 106.953 74.5611 107.22 75.3611 107.22ZM88.045 98.98C88.885 98.98 89.6317 99.1933 90.285 99.62C90.9517 100.047 91.465 100.653 91.825 101.44C92.1983 102.213 92.385 103.107 92.385 104.12C92.385 105.133 92.1983 106.02 91.825 106.78C91.465 107.54 90.9583 108.127 90.305 108.54C89.6517 108.953 88.8983 109.16 88.045 109.16C87.3517 109.16 86.7317 109.013 86.185 108.72C85.6383 108.427 85.2183 108.02 84.925 107.5V111.58C84.925 111.927 84.8117 112.2 84.585 112.4C84.3583 112.6 84.0583 112.7 83.685 112.7C83.3117 112.7 83.005 112.593 82.765 112.38C82.5383 112.167 82.425 111.887 82.425 111.54V100.2C82.425 99.84 82.5317 99.5533 82.745 99.34C82.9717 99.1267 83.2717 99.02 83.645 99.02C84.0183 99.02 84.3183 99.1267 84.545 99.34C84.7717 99.5533 84.885 99.84 84.885 100.2V100.7C85.1783 100.153 85.5983 99.7333 86.145 99.44C86.705 99.1333 87.3383 98.98 88.045 98.98ZM87.385 107.22C88.1717 107.22 88.785 106.953 89.225 106.42C89.665 105.873 89.885 105.107 89.885 104.12C89.885 103.107 89.665 102.32 89.225 101.76C88.785 101.2 88.1717 100.92 87.385 100.92C86.585 100.92 85.965 101.193 85.525 101.74C85.0983 102.287 84.885 103.067 84.885 104.08C84.885 105.08 85.0983 105.853 85.525 106.4C85.965 106.947 86.585 107.22 87.385 107.22ZM102.177 106.32C102.403 106.32 102.583 106.407 102.717 106.58C102.863 106.753 102.937 106.987 102.937 107.28C102.937 107.693 102.69 108.04 102.197 108.32C101.743 108.573 101.23 108.78 100.657 108.94C100.083 109.087 99.5367 109.16 99.0167 109.16C97.4434 109.16 96.1967 108.707 95.2767 107.8C94.3567 106.893 93.8967 105.653 93.8967 104.08C93.8967 103.08 94.0967 102.193 94.4967 101.42C94.8967 100.647 95.4567 100.047 96.1767 99.62C96.9101 99.1933 97.7367 98.98 98.6567 98.98C99.5367 98.98 100.303 99.1733 100.957 99.56C101.61 99.9467 102.117 100.493 102.477 101.2C102.837 101.907 103.017 102.74 103.017 103.7C103.017 104.273 102.763 104.56 102.257 104.56H96.3567C96.4367 105.48 96.6967 106.16 97.1367 106.6C97.5767 107.027 98.2167 107.24 99.0567 107.24C99.4834 107.24 99.8567 107.187 100.177 107.08C100.51 106.973 100.883 106.827 101.297 106.64C101.697 106.427 101.99 106.32 102.177 106.32ZM98.7167 100.74C98.0367 100.74 97.4901 100.953 97.0767 101.38C96.6767 101.807 96.4367 102.42 96.3567 103.22H100.877C100.85 102.407 100.65 101.793 100.277 101.38C99.9034 100.953 99.3834 100.74 98.7167 100.74ZM113.222 94.8C113.595 94.8 113.902 94.9067 114.142 95.12C114.382 95.3333 114.502 95.6133 114.502 95.96V107.92C114.502 108.28 114.388 108.567 114.162 108.78C113.935 108.993 113.635 109.1 113.262 109.1C112.888 109.1 112.588 108.993 112.362 108.78C112.135 108.567 112.022 108.28 112.022 107.92V107.42C111.728 107.967 111.302 108.393 110.742 108.7C110.195 109.007 109.568 109.16 108.862 109.16C108.022 109.16 107.268 108.947 106.602 108.52C105.948 108.093 105.435 107.493 105.062 106.72C104.702 105.933 104.522 105.033 104.522 104.02C104.522 103.007 104.702 102.12 105.062 101.36C105.435 100.6 105.948 100.013 106.602 99.6C107.255 99.1867 108.008 98.98 108.862 98.98C109.568 98.98 110.195 99.1267 110.742 99.42C111.288 99.7133 111.708 100.127 112.002 100.66V95.92C112.002 95.5867 112.108 95.32 112.322 95.12C112.548 94.9067 112.848 94.8 113.222 94.8ZM109.522 107.22C110.322 107.22 110.935 106.947 111.362 106.4C111.802 105.853 112.022 105.073 112.022 104.06C112.022 103.047 111.802 102.273 111.362 101.74C110.935 101.193 110.328 100.92 109.542 100.92C108.742 100.92 108.122 101.187 107.682 101.72C107.242 102.253 107.022 103.02 107.022 104.02C107.022 105.033 107.242 105.82 107.682 106.38C108.122 106.94 108.735 107.22 109.522 107.22ZM135.723 99.76C135.816 99.52 135.95 99.34 136.123 99.22C136.31 99.1 136.51 99.04 136.723 99.04C137.03 99.04 137.303 99.1467 137.543 99.36C137.796 99.56 137.923 99.8133 137.923 100.12C137.923 100.293 137.89 100.447 137.823 100.58L134.523 108.32C134.416 108.573 134.25 108.767 134.023 108.9C133.81 109.033 133.57 109.1 133.303 109.1C133.05 109.1 132.81 109.033 132.583 108.9C132.37 108.767 132.21 108.573 132.103 108.32L129.723 102.6L127.423 108.32C127.316 108.573 127.15 108.767 126.923 108.9C126.71 109.033 126.47 109.1 126.203 109.1C125.95 109.1 125.71 109.033 125.483 108.9C125.256 108.767 125.09 108.573 124.983 108.32L121.703 100.58C121.636 100.407 121.603 100.26 121.603 100.14C121.603 99.8333 121.736 99.5733 122.003 99.36C122.27 99.1333 122.563 99.02 122.883 99.02C123.11 99.02 123.316 99.08 123.503 99.2C123.69 99.32 123.83 99.5 123.923 99.74L126.283 105.84L128.703 99.8C128.81 99.5467 128.963 99.36 129.163 99.24C129.363 99.1067 129.583 99.04 129.823 99.04C130.063 99.04 130.283 99.1067 130.483 99.24C130.683 99.36 130.836 99.5467 130.943 99.8L133.383 105.86L135.723 99.76ZM141.204 109.12C140.844 109.12 140.544 109.02 140.304 108.82C140.077 108.607 139.964 108.307 139.964 107.92V100.2C139.964 99.8133 140.077 99.52 140.304 99.32C140.544 99.12 140.844 99.02 141.204 99.02C141.564 99.02 141.864 99.12 142.104 99.32C142.344 99.52 142.464 99.8133 142.464 100.2V107.92C142.464 108.307 142.344 108.607 142.104 108.82C141.864 109.02 141.564 109.12 141.204 109.12ZM141.204 97.24C140.751 97.24 140.391 97.12 140.124 96.88C139.857 96.6267 139.724 96.3 139.724 95.9C139.724 95.5 139.857 95.18 140.124 94.94C140.391 94.7 140.751 94.58 141.204 94.58C141.644 94.58 141.997 94.7 142.264 94.94C142.544 95.18 142.684 95.5 142.684 95.9C142.684 96.3 142.551 96.6267 142.284 96.88C142.017 97.12 141.657 97.24 141.204 97.24ZM150.552 107.26C151.219 107.3 151.552 107.6 151.552 108.16C151.552 108.48 151.419 108.727 151.152 108.9C150.899 109.06 150.532 109.127 150.052 109.1L149.512 109.06C147.272 108.9 146.152 107.7 146.152 105.46V101.1H145.152C144.792 101.1 144.512 101.02 144.312 100.86C144.125 100.7 144.032 100.467 144.032 100.16C144.032 99.8533 144.125 99.62 144.312 99.46C144.512 99.3 144.792 99.22 145.152 99.22H146.152V97.38C146.152 97.02 146.265 96.7333 146.492 96.52C146.719 96.3067 147.025 96.2 147.412 96.2C147.785 96.2 148.085 96.3067 148.312 96.52C148.539 96.7333 148.652 97.02 148.652 97.38V99.22H150.352C150.712 99.22 150.985 99.3 151.172 99.46C151.372 99.62 151.472 99.8533 151.472 100.16C151.472 100.467 151.372 100.7 151.172 100.86C150.985 101.02 150.712 101.1 150.352 101.1H148.652V105.64C148.652 106.627 149.105 107.153 150.012 107.22L150.552 107.26ZM158.575 98.98C160.868 98.98 162.015 100.32 162.015 103V107.92C162.015 108.293 161.901 108.587 161.675 108.8C161.461 109.013 161.161 109.12 160.775 109.12C160.388 109.12 160.081 109.013 159.855 108.8C159.628 108.587 159.515 108.293 159.515 107.92V103C159.515 102.293 159.368 101.78 159.075 101.46C158.795 101.127 158.348 100.96 157.735 100.96C157.015 100.96 156.435 101.187 155.995 101.64C155.568 102.093 155.355 102.7 155.355 103.46V107.92C155.355 108.293 155.241 108.587 155.015 108.8C154.788 109.013 154.481 109.12 154.095 109.12C153.708 109.12 153.401 109.013 153.175 108.8C152.961 108.587 152.855 108.293 152.855 107.92V95.96C152.855 95.6133 152.968 95.3333 153.195 95.12C153.435 94.9067 153.741 94.8 154.115 94.8C154.488 94.8 154.788 94.9 155.015 95.1C155.241 95.3 155.355 95.5733 155.355 95.92V100.58C155.688 100.06 156.128 99.6667 156.675 99.4C157.235 99.12 157.868 98.98 158.575 98.98ZM180.464 95.46C180.677 95.0067 181.03 94.78 181.524 94.78C181.857 94.78 182.157 94.8867 182.424 95.1C182.69 95.3133 182.824 95.58 182.824 95.9C182.824 96.0467 182.784 96.2133 182.704 96.4L177.164 108.32C177.044 108.573 176.857 108.773 176.604 108.92C176.364 109.053 176.104 109.12 175.824 109.12C175.544 109.12 175.277 109.053 175.024 108.92C174.784 108.773 174.604 108.573 174.484 108.32L168.964 96.4C168.884 96.2133 168.844 96.0533 168.844 95.92C168.844 95.5867 168.977 95.3133 169.244 95.1C169.524 94.8867 169.837 94.78 170.184 94.78C170.41 94.78 170.617 94.84 170.804 94.96C171.004 95.0667 171.157 95.2333 171.264 95.46L175.864 105.68L180.464 95.46ZM190.985 99.02C191.372 99.02 191.678 99.1267 191.905 99.34C192.132 99.5533 192.245 99.84 192.245 100.2V107.96C192.245 108.307 192.125 108.587 191.885 108.8C191.658 109.013 191.358 109.12 190.985 109.12C190.625 109.12 190.338 109.02 190.125 108.82C189.912 108.62 189.805 108.347 189.805 108V107.5C189.498 108.033 189.085 108.447 188.565 108.74C188.045 109.02 187.458 109.16 186.805 109.16C184.405 109.16 183.205 107.813 183.205 105.12V100.2C183.205 99.84 183.318 99.5533 183.545 99.34C183.772 99.1267 184.072 99.02 184.445 99.02C184.832 99.02 185.138 99.1267 185.365 99.34C185.592 99.5533 185.705 99.84 185.705 100.2V105.14C185.705 105.833 185.845 106.347 186.125 106.68C186.405 107.013 186.845 107.18 187.445 107.18C188.138 107.18 188.692 106.953 189.105 106.5C189.532 106.033 189.745 105.42 189.745 104.66V100.2C189.745 99.84 189.858 99.5533 190.085 99.34C190.312 99.1267 190.612 99.02 190.985 99.02ZM202.587 106.32C202.814 106.32 202.994 106.407 203.127 106.58C203.274 106.753 203.347 106.987 203.347 107.28C203.347 107.693 203.1 108.04 202.607 108.32C202.154 108.573 201.64 108.78 201.067 108.94C200.494 109.087 199.947 109.16 199.427 109.16C197.854 109.16 196.607 108.707 195.687 107.8C194.767 106.893 194.307 105.653 194.307 104.08C194.307 103.08 194.507 102.193 194.907 101.42C195.307 100.647 195.867 100.047 196.587 99.62C197.32 99.1933 198.147 98.98 199.067 98.98C199.947 98.98 200.714 99.1733 201.367 99.56C202.02 99.9467 202.527 100.493 202.887 101.2C203.247 101.907 203.427 102.74 203.427 103.7C203.427 104.273 203.174 104.56 202.667 104.56H196.767C196.847 105.48 197.107 106.16 197.547 106.6C197.987 107.027 198.627 107.24 199.467 107.24C199.894 107.24 200.267 107.187 200.587 107.08C200.92 106.973 201.294 106.827 201.707 106.64C202.107 106.427 202.4 106.32 202.587 106.32ZM199.127 100.74C198.447 100.74 197.9 100.953 197.487 101.38C197.087 101.807 196.847 102.42 196.767 103.22H201.287C201.26 102.407 201.06 101.793 200.687 101.38C200.314 100.953 199.794 100.74 199.127 100.74Z" fill="#2F2E32"/>
<path d="M26.514 138.736C24.966 138.736 23.616 138.418 22.464 137.782C21.312 137.146 20.424 136.252 19.8 135.1C19.188 133.936 18.882 132.598 18.882 131.086C18.882 129.502 19.212 128.116 19.872 126.928C20.544 125.74 21.456 124.822 22.608 124.174C23.772 123.526 25.074 123.202 26.514 123.202C28.05 123.202 29.364 123.52 30.456 124.156C31.56 124.78 32.388 125.596 32.94 126.604C33.504 127.612 33.786 128.68 33.786 129.808C33.786 130.984 33.606 131.95 33.246 132.706C32.898 133.45 32.448 133.996 31.896 134.344C31.356 134.68 30.78 134.848 30.168 134.848C29.532 134.848 29.028 134.71 28.656 134.434C28.296 134.146 28.092 133.75 28.044 133.246H28.008C27.708 133.738 27.33 134.128 26.874 134.416C26.43 134.704 25.908 134.848 25.308 134.848C24.516 134.848 23.874 134.572 23.382 134.02C22.89 133.456 22.644 132.682 22.644 131.698C22.644 130.882 22.8 130.114 23.112 129.394C23.436 128.674 23.886 128.098 24.462 127.666C25.038 127.234 25.698 127.018 26.442 127.018C27.006 127.018 27.498 127.156 27.918 127.432C28.338 127.696 28.614 128.044 28.746 128.476H28.764L28.908 127.684C28.932 127.54 28.998 127.426 29.106 127.342C29.214 127.258 29.346 127.216 29.502 127.216C29.706 127.216 29.856 127.282 29.952 127.414C30.048 127.534 30.078 127.696 30.042 127.9L29.304 132.112C29.256 132.448 29.232 132.664 29.232 132.76C29.232 133.168 29.328 133.456 29.52 133.624C29.712 133.792 30 133.876 30.384 133.876C30.72 133.876 31.062 133.744 31.41 133.48C31.758 133.204 32.052 132.766 32.292 132.166C32.532 131.554 32.652 130.768 32.652 129.808C32.652 128.86 32.424 127.966 31.968 127.126C31.512 126.286 30.822 125.608 29.898 125.092C28.974 124.564 27.846 124.3 26.514 124.3C25.29 124.3 24.186 124.576 23.202 125.128C22.23 125.668 21.462 126.454 20.898 127.486C20.334 128.506 20.052 129.706 20.052 131.086C20.052 132.406 20.31 133.564 20.826 134.56C21.342 135.544 22.086 136.3 23.058 136.828C24.03 137.368 25.182 137.638 26.514 137.638C28.338 137.638 29.76 137.146 30.78 136.162C30.948 136.006 31.122 135.928 31.302 135.928C31.446 135.928 31.566 135.982 31.662 136.09C31.758 136.198 31.806 136.33 31.806 136.486C31.806 136.678 31.734 136.84 31.59 136.972C31.05 137.512 30.336 137.938 29.448 138.25C28.572 138.574 27.594 138.736 26.514 138.736ZM25.542 133.876C26.142 133.876 26.658 133.696 27.09 133.336C27.534 132.964 27.87 132.49 28.098 131.914C28.326 131.338 28.44 130.732 28.44 130.096C28.44 129.424 28.272 128.914 27.936 128.566C27.612 128.206 27.168 128.026 26.604 128.026C26.028 128.026 25.524 128.2 25.092 128.548C24.672 128.896 24.348 129.352 24.12 129.916C23.904 130.468 23.796 131.044 23.796 131.644C23.796 132.352 23.964 132.904 24.3 133.3C24.636 133.684 25.05 133.876 25.542 133.876ZM46.2527 136.144C45.0527 136.144 44.0147 135.886 43.1387 135.37C42.2627 134.842 41.5847 134.092 41.1047 133.12C40.6367 132.136 40.4027 130.978 40.4027 129.646C40.4027 128.326 40.6367 127.18 41.1047 126.208C41.5847 125.224 42.2627 124.474 43.1387 123.958C44.0147 123.43 45.0527 123.166 46.2527 123.166C47.0567 123.166 47.8127 123.298 48.5207 123.562C49.2407 123.814 49.8647 124.18 50.3927 124.66C50.5847 124.84 50.6807 125.05 50.6807 125.29C50.6807 125.458 50.6327 125.608 50.5367 125.74C50.4407 125.86 50.3267 125.92 50.1947 125.92C50.0507 125.92 49.8767 125.854 49.6727 125.722C49.0607 125.242 48.5027 124.906 47.9987 124.714C47.5067 124.522 46.9367 124.426 46.2887 124.426C44.8967 124.426 43.8227 124.882 43.0667 125.794C42.3227 126.694 41.9507 127.978 41.9507 129.646C41.9507 131.326 42.3227 132.622 43.0667 133.534C43.8227 134.434 44.8967 134.884 46.2887 134.884C46.9247 134.884 47.4947 134.788 47.9987 134.596C48.5027 134.404 49.0607 134.068 49.6727 133.588C49.8767 133.456 50.0507 133.39 50.1947 133.39C50.3267 133.39 50.4407 133.45 50.5367 133.57C50.6327 133.69 50.6807 133.84 50.6807 134.02C50.6807 134.26 50.5847 134.47 50.3927 134.65C49.8647 135.13 49.2407 135.502 48.5207 135.766C47.8127 136.018 47.0567 136.144 46.2527 136.144ZM56.2425 127.018C58.4385 127.018 59.5365 128.17 59.5365 130.474V135.37C59.5365 135.586 59.4705 135.76 59.3385 135.892C59.2185 136.024 59.0505 136.09 58.8345 136.09C58.6185 136.09 58.4445 136.024 58.3125 135.892C58.1805 135.76 58.1145 135.586 58.1145 135.37V134.506C57.8865 135.022 57.5385 135.424 57.0705 135.712C56.6025 135.988 56.0625 136.126 55.4505 136.126C54.8865 136.126 54.3645 136.012 53.8845 135.784C53.4165 135.556 53.0445 135.238 52.7685 134.83C52.4925 134.422 52.3545 133.972 52.3545 133.48C52.3545 132.82 52.5225 132.31 52.8585 131.95C53.1945 131.578 53.7465 131.314 54.5145 131.158C55.2825 130.99 56.3505 130.906 57.7185 130.906H58.1145V130.312C58.1145 129.592 57.9645 129.064 57.6645 128.728C57.3765 128.392 56.9025 128.224 56.2425 128.224C55.4265 128.224 54.5985 128.446 53.7585 128.89C53.4345 129.094 53.2065 129.196 53.0745 129.196C52.9305 129.196 52.8105 129.142 52.7145 129.034C52.6185 128.926 52.5705 128.788 52.5705 128.62C52.5705 128.452 52.6185 128.308 52.7145 128.188C52.8225 128.056 52.9905 127.924 53.2185 127.792C53.6385 127.552 54.1125 127.366 54.6405 127.234C55.1805 127.09 55.7145 127.018 56.2425 127.018ZM55.6485 134.974C56.3685 134.974 56.9565 134.734 57.4125 134.254C57.8805 133.762 58.1145 133.132 58.1145 132.364V131.842H57.7905C56.7345 131.842 55.9305 131.89 55.3785 131.986C54.8265 132.07 54.4305 132.22 54.1905 132.436C53.9625 132.64 53.8485 132.946 53.8485 133.354C53.8485 133.822 54.0165 134.212 54.3525 134.524C54.7005 134.824 55.1325 134.974 55.6485 134.974ZM66.5435 127.054C67.0475 127.018 67.2995 127.222 67.2995 127.666C67.2995 127.858 67.2455 128.014 67.1375 128.134C67.0295 128.242 66.8435 128.308 66.5795 128.332L66.0395 128.386C65.2355 128.458 64.6355 128.746 64.2395 129.25C63.8555 129.742 63.6635 130.324 63.6635 130.996V135.37C63.6635 135.61 63.5975 135.79 63.4655 135.91C63.3335 136.03 63.1595 136.09 62.9435 136.09C62.7275 136.09 62.5475 136.03 62.4035 135.91C62.2715 135.778 62.2055 135.598 62.2055 135.37V127.774C62.2055 127.546 62.2775 127.372 62.4215 127.252C62.5655 127.12 62.7395 127.054 62.9435 127.054C63.1355 127.054 63.2975 127.12 63.4295 127.252C63.5615 127.372 63.6275 127.54 63.6275 127.756V128.764C63.8795 128.236 64.2335 127.834 64.6895 127.558C65.1575 127.282 65.6915 127.12 66.2915 127.072L66.5435 127.054ZM78.3072 127.018C80.2512 127.018 81.2232 128.176 81.2232 130.492V135.37C81.2232 135.598 81.1572 135.778 81.0252 135.91C80.8932 136.03 80.7192 136.09 80.5032 136.09C80.2872 136.09 80.1072 136.03 79.9632 135.91C79.8312 135.778 79.7652 135.598 79.7652 135.37V130.528C79.7652 129.724 79.6212 129.142 79.3332 128.782C79.0452 128.422 78.5952 128.242 77.9832 128.242C77.2512 128.242 76.6752 128.488 76.2552 128.98C75.8352 129.472 75.6252 130.138 75.6252 130.978V135.37C75.6252 135.598 75.5532 135.778 75.4092 135.91C75.2772 136.03 75.1032 136.09 74.8872 136.09C74.6712 136.09 74.4972 136.03 74.3652 135.91C74.2332 135.778 74.1672 135.598 74.1672 135.37V130.528C74.1672 129.724 74.0232 129.142 73.7352 128.782C73.4472 128.422 72.9912 128.242 72.3672 128.242C71.6472 128.242 71.0712 128.488 70.6392 128.98C70.2192 129.472 70.0092 130.138 70.0092 130.978V135.37C70.0092 135.598 69.9432 135.778 69.8112 135.91C69.6792 136.03 69.5052 136.09 69.2892 136.09C69.0732 136.09 68.8932 136.03 68.7492 135.91C68.6172 135.778 68.5512 135.598 68.5512 135.37V127.774C68.5512 127.558 68.6172 127.384 68.7492 127.252C68.8932 127.12 69.0732 127.054 69.2892 127.054C69.4932 127.054 69.6612 127.12 69.7932 127.252C69.9252 127.372 69.9912 127.54 69.9912 127.756V128.62C70.2552 128.104 70.6212 127.708 71.0892 127.432C71.5572 127.156 72.0972 127.018 72.7092 127.018C74.0772 127.018 74.9712 127.594 75.3912 128.746C75.6432 128.218 76.0272 127.798 76.5432 127.486C77.0592 127.174 77.6472 127.018 78.3072 127.018ZM84.6173 136.09C84.4013 136.09 84.2213 136.03 84.0773 135.91C83.9453 135.778 83.8793 135.598 83.8793 135.37V127.774C83.8793 127.546 83.9453 127.372 84.0773 127.252C84.2213 127.12 84.4013 127.054 84.6173 127.054C84.8333 127.054 85.0073 127.12 85.1393 127.252C85.2713 127.372 85.3373 127.546 85.3373 127.774V135.37C85.3373 135.61 85.2713 135.79 85.1393 135.91C85.0073 136.03 84.8333 136.09 84.6173 136.09ZM84.6173 125.164C84.3293 125.164 84.0953 125.08 83.9153 124.912C83.7353 124.744 83.6453 124.522 83.6453 124.246C83.6453 123.982 83.7353 123.766 83.9153 123.598C84.0953 123.43 84.3293 123.346 84.6173 123.346C84.9053 123.346 85.1393 123.43 85.3193 123.598C85.4993 123.766 85.5893 123.982 85.5893 124.246C85.5893 124.522 85.4993 124.744 85.3193 124.912C85.1393 125.08 84.9053 125.164 84.6173 125.164ZM92.4729 127.018C94.5729 127.018 95.6229 128.176 95.6229 130.492V135.37C95.6229 135.598 95.5569 135.778 95.4249 135.91C95.3049 136.03 95.1309 136.09 94.9029 136.09C94.6749 136.09 94.4949 136.03 94.3629 135.91C94.2309 135.778 94.1649 135.598 94.1649 135.37V130.582C94.1649 129.766 94.0029 129.172 93.6789 128.8C93.3669 128.428 92.8629 128.242 92.1669 128.242C91.3629 128.242 90.7209 128.488 90.2409 128.98C89.7609 129.472 89.5209 130.138 89.5209 130.978V135.37C89.5209 135.598 89.4549 135.778 89.3229 135.91C89.2029 136.03 89.0289 136.09 88.8009 136.09C88.5729 136.09 88.3929 136.03 88.2609 135.91C88.1289 135.778 88.0629 135.598 88.0629 135.37V127.774C88.0629 127.558 88.1289 127.384 88.2609 127.252C88.3929 127.12 88.5729 127.054 88.8009 127.054C89.0169 127.054 89.1849 127.12 89.3049 127.252C89.4369 127.384 89.5029 127.552 89.5029 127.756V128.674C89.7909 128.134 90.1929 127.726 90.7089 127.45C91.2249 127.162 91.8129 127.018 92.4729 127.018ZM105.079 133.966C105.211 133.966 105.325 134.02 105.421 134.128C105.517 134.236 105.565 134.374 105.565 134.542C105.565 134.842 105.355 135.118 104.935 135.37C104.503 135.622 104.047 135.814 103.567 135.946C103.087 136.066 102.619 136.126 102.163 136.126C100.807 136.126 99.7334 135.724 98.9414 134.92C98.1614 134.116 97.7714 133.006 97.7714 131.59C97.7714 130.69 97.9454 129.898 98.2934 129.214C98.6414 128.518 99.1274 127.978 99.7514 127.594C100.387 127.21 101.107 127.018 101.911 127.018C103.051 127.018 103.957 127.39 104.629 128.134C105.301 128.878 105.637 129.886 105.637 131.158C105.637 131.398 105.589 131.572 105.493 131.68C105.397 131.788 105.241 131.842 105.025 131.842H99.2294C99.3374 133.906 100.315 134.938 102.163 134.938C102.631 134.938 103.033 134.878 103.369 134.758C103.705 134.626 104.065 134.452 104.449 134.236C104.761 134.056 104.971 133.966 105.079 133.966ZM101.929 128.152C101.161 128.152 100.543 128.392 100.075 128.872C99.6194 129.352 99.3494 130.03 99.2654 130.906H104.359C104.335 130.018 104.113 129.34 103.693 128.872C103.273 128.392 102.685 128.152 101.929 128.152ZM113.38 136.09C113.152 136.09 112.972 136.024 112.84 135.892C112.708 135.748 112.642 135.562 112.642 135.334V124.03C112.642 123.814 112.708 123.64 112.84 123.508C112.984 123.376 113.17 123.31 113.398 123.31H119.95C120.166 123.31 120.334 123.364 120.454 123.472C120.574 123.58 120.634 123.736 120.634 123.94C120.634 124.132 120.574 124.282 120.454 124.39C120.334 124.498 120.166 124.552 119.95 124.552H114.1V128.926H119.59C119.806 128.926 119.974 128.98 120.094 129.088C120.214 129.196 120.274 129.352 120.274 129.556C120.274 129.748 120.214 129.898 120.094 130.006C119.974 130.114 119.806 130.168 119.59 130.168H114.1V135.334C114.1 135.562 114.034 135.748 113.902 135.892C113.782 136.024 113.608 136.09 113.38 136.09ZM125.764 127.018C127.96 127.018 129.058 128.17 129.058 130.474V135.37C129.058 135.586 128.992 135.76 128.86 135.892C128.74 136.024 128.572 136.09 128.356 136.09C128.14 136.09 127.966 136.024 127.834 135.892C127.702 135.76 127.636 135.586 127.636 135.37V134.506C127.408 135.022 127.06 135.424 126.592 135.712C126.124 135.988 125.584 136.126 124.972 136.126C124.408 136.126 123.886 136.012 123.406 135.784C122.938 135.556 122.566 135.238 122.29 134.83C122.014 134.422 121.876 133.972 121.876 133.48C121.876 132.82 122.044 132.31 122.38 131.95C122.716 131.578 123.268 131.314 124.036 131.158C124.804 130.99 125.872 130.906 127.24 130.906H127.636V130.312C127.636 129.592 127.486 129.064 127.186 128.728C126.898 128.392 126.424 128.224 125.764 128.224C124.948 128.224 124.12 128.446 123.28 128.89C122.956 129.094 122.728 129.196 122.596 129.196C122.452 129.196 122.332 129.142 122.236 129.034C122.14 128.926 122.092 128.788 122.092 128.62C122.092 128.452 122.14 128.308 122.236 128.188C122.344 128.056 122.512 127.924 122.74 127.792C123.16 127.552 123.634 127.366 124.162 127.234C124.702 127.09 125.236 127.018 125.764 127.018ZM125.17 134.974C125.89 134.974 126.478 134.734 126.934 134.254C127.402 133.762 127.636 133.132 127.636 132.364V131.842H127.312C126.256 131.842 125.452 131.89 124.9 131.986C124.348 132.07 123.952 132.22 123.712 132.436C123.484 132.64 123.37 132.946 123.37 133.354C123.37 133.822 123.538 134.212 123.874 134.524C124.222 134.824 124.654 134.974 125.17 134.974ZM136.137 127.018C136.905 127.018 137.583 127.204 138.171 127.576C138.759 127.948 139.215 128.476 139.539 129.16C139.863 129.844 140.025 130.636 140.025 131.536C140.025 132.448 139.863 133.252 139.539 133.948C139.215 134.632 138.759 135.166 138.171 135.55C137.583 135.934 136.905 136.126 136.137 136.126C135.453 136.126 134.853 135.976 134.337 135.676C133.833 135.376 133.449 134.95 133.185 134.398V135.37C133.185 135.586 133.119 135.76 132.987 135.892C132.867 136.024 132.693 136.09 132.465 136.09C132.237 136.09 132.057 136.024 131.925 135.892C131.793 135.76 131.727 135.586 131.727 135.37V123.922C131.727 123.718 131.793 123.55 131.925 123.418C132.057 123.286 132.237 123.22 132.465 123.22C132.693 123.22 132.867 123.286 132.987 123.418C133.119 123.538 133.185 123.706 133.185 123.922V128.746C133.449 128.194 133.833 127.768 134.337 127.468C134.853 127.168 135.453 127.018 136.137 127.018ZM135.849 134.92C136.701 134.92 137.361 134.626 137.829 134.038C138.297 133.438 138.531 132.604 138.531 131.536C138.531 130.492 138.297 129.682 137.829 129.106C137.361 128.53 136.701 128.242 135.849 128.242C134.997 128.242 134.337 128.53 133.869 129.106C133.413 129.682 133.185 130.504 133.185 131.572C133.185 132.64 133.413 133.468 133.869 134.056C134.337 134.632 134.997 134.92 135.849 134.92ZM146.614 127.018C147.382 127.018 148.06 127.204 148.648 127.576C149.236 127.948 149.692 128.476 150.016 129.16C150.34 129.844 150.502 130.636 150.502 131.536C150.502 132.448 150.34 133.252 150.016 133.948C149.692 134.632 149.236 135.166 148.648 135.55C148.06 135.934 147.382 136.126 146.614 136.126C145.93 136.126 145.33 135.976 144.814 135.676C144.31 135.376 143.926 134.95 143.662 134.398V135.37C143.662 135.586 143.596 135.76 143.464 135.892C143.344 136.024 143.17 136.09 142.942 136.09C142.714 136.09 142.534 136.024 142.402 135.892C142.27 135.76 142.204 135.586 142.204 135.37V123.922C142.204 123.718 142.27 123.55 142.402 123.418C142.534 123.286 142.714 123.22 142.942 123.22C143.17 123.22 143.344 123.286 143.464 123.418C143.596 123.538 143.662 123.706 143.662 123.922V128.746C143.926 128.194 144.31 127.768 144.814 127.468C145.33 127.168 145.93 127.018 146.614 127.018ZM146.326 134.92C147.178 134.92 147.838 134.626 148.306 134.038C148.774 133.438 149.008 132.604 149.008 131.536C149.008 130.492 148.774 129.682 148.306 129.106C147.838 128.53 147.178 128.242 146.326 128.242C145.474 128.242 144.814 128.53 144.346 129.106C143.89 129.682 143.662 130.504 143.662 131.572C143.662 132.64 143.89 133.468 144.346 134.056C144.814 134.632 145.474 134.92 146.326 134.92ZM157.018 127.054C157.522 127.018 157.774 127.222 157.774 127.666C157.774 127.858 157.72 128.014 157.612 128.134C157.504 128.242 157.318 128.308 157.054 128.332L156.514 128.386C155.71 128.458 155.11 128.746 154.714 129.25C154.33 129.742 154.138 130.324 154.138 130.996V135.37C154.138 135.61 154.072 135.79 153.94 135.91C153.808 136.03 153.634 136.09 153.418 136.09C153.202 136.09 153.022 136.03 152.878 135.91C152.746 135.778 152.68 135.598 152.68 135.37V127.774C152.68 127.546 152.752 127.372 152.896 127.252C153.04 127.12 153.214 127.054 153.418 127.054C153.61 127.054 153.772 127.12 153.904 127.252C154.036 127.372 154.102 127.54 154.102 127.756V128.764C154.354 128.236 154.708 127.834 155.164 127.558C155.632 127.282 156.166 127.12 156.766 127.072L157.018 127.054ZM159.764 136.09C159.548 136.09 159.368 136.03 159.224 135.91C159.092 135.778 159.026 135.598 159.026 135.37V127.774C159.026 127.546 159.092 127.372 159.224 127.252C159.368 127.12 159.548 127.054 159.764 127.054C159.98 127.054 160.154 127.12 160.286 127.252C160.418 127.372 160.484 127.546 160.484 127.774V135.37C160.484 135.61 160.418 135.79 160.286 135.91C160.154 136.03 159.98 136.09 159.764 136.09ZM159.764 125.164C159.476 125.164 159.242 125.08 159.062 124.912C158.882 124.744 158.792 124.522 158.792 124.246C158.792 123.982 158.882 123.766 159.062 123.598C159.242 123.43 159.476 123.346 159.764 123.346C160.052 123.346 160.286 123.43 160.466 123.598C160.646 123.766 160.736 123.982 160.736 124.246C160.736 124.522 160.646 124.744 160.466 124.912C160.286 125.08 160.052 125.164 159.764 125.164ZM175.644 134.758C175.86 134.758 176.028 134.812 176.148 134.92C176.268 135.028 176.328 135.178 176.328 135.37C176.328 135.79 176.1 136 175.644 136H168.588C168.384 136 168.216 135.94 168.084 135.82C167.952 135.688 167.886 135.532 167.886 135.352C167.886 135.124 167.97 134.926 168.138 134.758L172.476 129.988C173.076 129.316 173.508 128.716 173.772 128.188C174.048 127.648 174.186 127.108 174.186 126.568C174.186 125.872 173.982 125.338 173.574 124.966C173.178 124.594 172.614 124.408 171.882 124.408C171.306 124.408 170.754 124.516 170.226 124.732C169.698 124.936 169.17 125.254 168.642 125.686C168.462 125.83 168.294 125.902 168.138 125.902C168.006 125.902 167.892 125.842 167.796 125.722C167.7 125.59 167.652 125.434 167.652 125.254C167.652 125.002 167.748 124.798 167.94 124.642C168.432 124.186 169.032 123.826 169.74 123.562C170.448 123.298 171.174 123.166 171.918 123.166C173.058 123.166 173.964 123.466 174.636 124.066C175.32 124.666 175.662 125.476 175.662 126.496C175.662 127.228 175.494 127.93 175.158 128.602C174.834 129.274 174.294 130.024 173.538 130.852L169.938 134.758H175.644ZM182.693 136.144C181.241 136.144 180.137 135.592 179.381 134.488C178.625 133.384 178.247 131.776 178.247 129.664C178.247 127.54 178.625 125.926 179.381 124.822C180.137 123.718 181.241 123.166 182.693 123.166C184.145 123.166 185.249 123.718 186.005 124.822C186.761 125.914 187.139 127.522 187.139 129.646C187.139 131.77 186.761 133.384 186.005 134.488C185.249 135.592 184.145 136.144 182.693 136.144ZM182.693 134.902C183.701 134.902 184.445 134.476 184.925 133.624C185.405 132.772 185.645 131.446 185.645 129.646C185.645 127.834 185.405 126.508 184.925 125.668C184.457 124.828 183.713 124.408 182.693 124.408C181.685 124.408 180.941 124.834 180.461 125.686C179.981 126.526 179.741 127.846 179.741 129.646C179.741 131.446 179.981 132.772 180.461 133.624C180.941 134.476 181.685 134.902 182.693 134.902ZM197.23 134.758C197.446 134.758 197.614 134.812 197.734 134.92C197.854 135.028 197.914 135.178 197.914 135.37C197.914 135.79 197.686 136 197.23 136H190.174C189.97 136 189.802 135.94 189.67 135.82C189.538 135.688 189.472 135.532 189.472 135.352C189.472 135.124 189.556 134.926 189.724 134.758L194.062 129.988C194.662 129.316 195.094 128.716 195.358 128.188C195.634 127.648 195.772 127.108 195.772 126.568C195.772 125.872 195.568 125.338 195.16 124.966C194.764 124.594 194.2 124.408 193.468 124.408C192.892 124.408 192.34 124.516 191.812 124.732C191.284 124.936 190.756 125.254 190.228 125.686C190.048 125.83 189.88 125.902 189.724 125.902C189.592 125.902 189.478 125.842 189.382 125.722C189.286 125.59 189.238 125.434 189.238 125.254C189.238 125.002 189.334 124.798 189.526 124.642C190.018 124.186 190.618 123.826 191.326 123.562C192.034 123.298 192.76 123.166 193.504 123.166C194.644 123.166 195.55 123.466 196.222 124.066C196.906 124.666 197.248 125.476 197.248 126.496C197.248 127.228 197.08 127.93 196.744 128.602C196.42 129.274 195.88 130.024 195.124 130.852L191.524 134.758H197.23ZM207.735 134.758C207.951 134.758 208.119 134.812 208.239 134.92C208.359 135.028 208.419 135.178 208.419 135.37C208.419 135.574 208.359 135.73 208.239 135.838C208.131 135.946 207.963 136 207.735 136H201.777C201.549 136 201.375 135.946 201.255 135.838C201.147 135.73 201.093 135.574 201.093 135.37C201.093 135.178 201.153 135.028 201.273 134.92C201.393 134.812 201.561 134.758 201.777 134.758H204.009V125.11L202.047 126.388C201.951 126.448 201.855 126.478 201.759 126.478C201.591 126.478 201.441 126.4 201.309 126.244C201.189 126.088 201.129 125.92 201.129 125.74C201.129 125.488 201.225 125.308 201.417 125.2L204.153 123.418C204.357 123.286 204.567 123.22 204.783 123.22C204.987 123.22 205.155 123.286 205.287 123.418C205.419 123.55 205.485 123.736 205.485 123.976V134.758H207.735ZM216.149 131.806C215.933 131.806 215.765 131.752 215.645 131.644C215.537 131.536 215.483 131.392 215.483 131.212C215.483 131.032 215.537 130.888 215.645 130.78C215.765 130.66 215.933 130.6 216.149 130.6H220.109C220.337 130.6 220.505 130.66 220.613 130.78C220.733 130.888 220.793 131.032 220.793 131.212C220.793 131.392 220.733 131.536 220.613 131.644C220.505 131.752 220.337 131.806 220.109 131.806H216.149ZM235.744 134.758C235.96 134.758 236.128 134.812 236.248 134.92C236.368 135.028 236.428 135.178 236.428 135.37C236.428 135.79 236.2 136 235.744 136H228.688C228.484 136 228.316 135.94 228.184 135.82C228.052 135.688 227.986 135.532 227.986 135.352C227.986 135.124 228.07 134.926 228.238 134.758L232.576 129.988C233.176 129.316 233.608 128.716 233.872 128.188C234.148 127.648 234.286 127.108 234.286 126.568C234.286 125.872 234.082 125.338 233.674 124.966C233.278 124.594 232.714 124.408 231.982 124.408C231.406 124.408 230.854 124.516 230.326 124.732C229.798 124.936 229.27 125.254 228.742 125.686C228.562 125.83 228.394 125.902 228.238 125.902C228.106 125.902 227.992 125.842 227.896 125.722C227.8 125.59 227.752 125.434 227.752 125.254C227.752 125.002 227.848 124.798 228.04 124.642C228.532 124.186 229.132 123.826 229.84 123.562C230.548 123.298 231.274 123.166 232.018 123.166C233.158 123.166 234.064 123.466 234.736 124.066C235.42 124.666 235.762 125.476 235.762 126.496C235.762 127.228 235.594 127.93 235.258 128.602C234.934 129.274 234.394 130.024 233.638 130.852L230.038 134.758H235.744ZM242.793 136.144C241.341 136.144 240.237 135.592 239.481 134.488C238.725 133.384 238.347 131.776 238.347 129.664C238.347 127.54 238.725 125.926 239.481 124.822C240.237 123.718 241.341 123.166 242.793 123.166C244.245 123.166 245.349 123.718 246.105 124.822C246.861 125.914 247.239 127.522 247.239 129.646C247.239 131.77 246.861 133.384 246.105 134.488C245.349 135.592 244.245 136.144 242.793 136.144ZM242.793 134.902C243.801 134.902 244.545 134.476 245.025 133.624C245.505 132.772 245.745 131.446 245.745 129.646C245.745 127.834 245.505 126.508 245.025 125.668C244.557 124.828 243.813 124.408 242.793 124.408C241.785 124.408 241.041 124.834 240.561 125.686C240.081 126.526 239.841 127.846 239.841 129.646C239.841 131.446 240.081 132.772 240.561 133.624C241.041 134.476 241.785 134.902 242.793 134.902ZM257.33 134.758C257.546 134.758 257.714 134.812 257.834 134.92C257.954 135.028 258.014 135.178 258.014 135.37C258.014 135.79 257.786 136 257.33 136H250.274C250.07 136 249.902 135.94 249.77 135.82C249.638 135.688 249.572 135.532 249.572 135.352C249.572 135.124 249.656 134.926 249.824 134.758L254.162 129.988C254.762 129.316 255.194 128.716 255.458 128.188C255.734 127.648 255.872 127.108 255.872 126.568C255.872 125.872 255.668 125.338 255.26 124.966C254.864 124.594 254.3 124.408 253.568 124.408C252.992 124.408 252.44 124.516 251.912 124.732C251.384 124.936 250.856 125.254 250.328 125.686C250.148 125.83 249.98 125.902 249.824 125.902C249.692 125.902 249.578 125.842 249.482 125.722C249.386 125.59 249.338 125.434 249.338 125.254C249.338 125.002 249.434 124.798 249.626 124.642C250.118 124.186 250.718 123.826 251.426 123.562C252.134 123.298 252.86 123.166 253.604 123.166C254.744 123.166 255.65 123.466 256.322 124.066C257.006 124.666 257.348 125.476 257.348 126.496C257.348 127.228 257.18 127.93 256.844 128.602C256.52 129.274 255.98 130.024 255.224 130.852L251.624 134.758H257.33ZM268.123 134.758C268.339 134.758 268.507 134.812 268.627 134.92C268.747 135.028 268.807 135.178 268.807 135.37C268.807 135.79 268.579 136 268.123 136H261.067C260.863 136 260.695 135.94 260.563 135.82C260.431 135.688 260.365 135.532 260.365 135.352C260.365 135.124 260.449 134.926 260.617 134.758L264.955 129.988C265.555 129.316 265.987 128.716 266.251 128.188C266.527 127.648 266.665 127.108 266.665 126.568C266.665 125.872 266.461 125.338 266.053 124.966C265.657 124.594 265.093 124.408 264.361 124.408C263.785 124.408 263.233 124.516 262.705 124.732C262.177 124.936 261.649 125.254 261.121 125.686C260.941 125.83 260.773 125.902 260.617 125.902C260.485 125.902 260.371 125.842 260.275 125.722C260.179 125.59 260.131 125.434 260.131 125.254C260.131 125.002 260.227 124.798 260.419 124.642C260.911 124.186 261.511 123.826 262.219 123.562C262.927 123.298 263.653 123.166 264.397 123.166C265.537 123.166 266.443 123.466 267.115 124.066C267.799 124.666 268.141 125.476 268.141 126.496C268.141 127.228 267.973 127.93 267.637 128.602C267.313 129.274 266.773 130.024 266.017 130.852L262.417 134.758H268.123Z" fill="#2F2E32"/>
</svg>
